<svg width="30" height="30" viewBox="0 0 30 30" fill="none" xmlns="http://www.w3.org/2000/svg">
<path d="M14.3206 10.0877L4.3644 20.5371C4.19819 20.7114 4.10547 20.9431 4.10547 21.1839C4.10547 21.4248 4.19819 21.6565 4.3644 21.8308L4.37565 21.8421C4.45622 21.9269 4.55321 21.9944 4.66071 22.0406C4.76821 22.0867 4.88397 22.1105 5.00096 22.1105C5.11795 22.1105 5.23371 22.0867 5.34121 22.0406C5.44871 21.9944 5.5457 21.9269 5.62627 21.8421L15.0013 12.0021L24.3725 21.8421C24.4531 21.9269 24.5501 21.9944 24.6576 22.0406C24.7651 22.0867 24.8808 22.1105 24.9978 22.1105C25.1148 22.1105 25.2306 22.0867 25.3381 22.0406C25.4456 21.9944 25.5426 21.9269 25.6231 21.8421L25.6344 21.8308C25.8006 21.6565 25.8933 21.4248 25.8933 21.1839C25.8933 20.9431 25.8006 20.7114 25.6344 20.5371L15.6781 10.0877C15.5906 9.99579 15.4853 9.92263 15.3686 9.87264C15.2519 9.82265 15.1263 9.79688 14.9994 9.79688C14.8725 9.79688 14.7469 9.82265 14.6302 9.87264C14.5135 9.92263 14.4082 9.99579 14.3206 10.0877Z" fill="black"/>
</svg>
