<?xml version="1.0" standalone="no"?>
<!DOCTYPE svg PUBLIC "-//W3C//DTD SVG 20010904//EN"
 "http://www.w3.org/TR/2001/REC-SVG-20010904/DTD/svg10.dtd">
<svg version="1.0" xmlns="http://www.w3.org/2000/svg"
 width="250.000000pt" height="280.000000pt" viewBox="0 0 250.000000 280.000000"
 preserveAspectRatio="xMidYMid meet">

<g transform="translate(0.000000,280.000000) scale(0.100000,-0.100000)"
fill="#000000" stroke="none">
<path d="M113 2729 c-44 -13 -90 -62 -103 -110 -6 -21 -10 -73 -8 -115 l3 -75
80 62 c126 96 279 163 422 183 35 5 46 2 63 -16 11 -12 20 -28 20 -35 0 -17
16 -17 23 1 9 22 57 13 78 -15 l19 -24 0 26 c0 23 5 27 42 32 46 6 61 1 38
-13 -85 -50 -196 -178 -254 -294 -36 -71 -85 -221 -106 -328 -6 -32 -12 -58
-13 -58 -1 0 -24 11 -51 25 -66 33 -142 34 -211 1 -103 -49 -146 -127 -153
-281 -2 -55 -2 -97 2 -94 3 3 15 52 26 110 11 57 22 113 25 125 8 36 82 111
127 129 51 20 135 23 169 5 40 -22 51 -39 49 -75 0 -19 -1 -43 -2 -52 0 -10 3
-54 7 -98 7 -80 -3 -135 -25 -135 -6 0 -6 9 1 26 12 34 -4 130 -29 164 -26 34
-80 70 -107 70 -26 0 -75 -36 -75 -55 0 -10 9 -12 34 -8 30 5 34 2 44 -26 11
-30 10 -31 -19 -31 -37 0 -64 -27 -95 -95 -51 -111 -53 -234 -6 -304 10 -14
24 -45 30 -68 7 -23 28 -58 46 -78 31 -33 37 -35 98 -35 53 0 70 -4 98 -25 19
-14 37 -30 41 -37 16 -25 18 0 5 56 -9 35 -24 68 -40 85 -23 24 -25 29 -12 34
9 4 16 2 16 -3 0 -6 12 -10 26 -10 16 0 23 -4 18 -12 -4 -6 0 -16 8 -22 8 -6
17 -19 21 -29 4 -10 11 -15 17 -12 5 3 10 -3 10 -13 0 -11 7 -25 15 -32 8 -7
15 -25 15 -41 0 -75 -50 -119 -138 -119 -59 0 -83 10 -125 49 -15 14 -58 46
-95 71 -76 52 -125 115 -158 203 l-23 62 0 -466 -1 -466 38 -7 c27 -4 40 -2
48 9 11 15 17 11 29 -25 1 -3 7 -18 13 -34 13 -31 13 -327 -1 -319 -4 2 -7 -3
-7 -11 0 -9 6 -16 13 -16 6 0 4 -5 -6 -11 -28 -17 -10 -29 44 -29 l49 0 0 43
c1 23 1 108 0 189 -1 92 3 149 10 153 6 4 10 -4 10 -19 0 -31 14 -41 30 -21
16 19 36 19 44 0 3 -8 12 -15 20 -15 7 0 17 -7 20 -16 5 -13 9 -14 20 -5 16
13 26 -12 26 -66 0 -35 17 -53 26 -28 6 14 8 14 19 -1 11 -16 13 -16 23 2 11
18 11 18 12 0 0 -12 5 -16 16 -12 13 5 15 1 10 -18 -3 -13 -9 -31 -12 -40 -8
-20 10 -21 26 -1 15 17 40 20 40 4 0 -6 7 -8 16 -5 27 10 63 -34 70 -87 4 -26
11 -50 16 -53 7 -4 8 8 4 32 -3 22 -11 79 -16 129 -6 50 -13 97 -15 105 -7 24
-33 306 -41 432 -7 124 0 208 18 208 5 0 8 -7 4 -15 -4 -10 1 -15 15 -15 12 0
17 -4 13 -11 -4 -8 0 -9 15 -4 22 7 25 2 21 -48 -1 -25 1 -28 19 -22 16 5 21
2 21 -10 0 -11 5 -15 14 -12 9 4 16 -4 20 -24 7 -38 30 -61 50 -53 16 6 22
-16 18 -73 -1 -28 6 -29 24 -5 13 16 13 16 14 -1 0 -13 5 -17 18 -13 12 4 20
-1 27 -17 6 -12 15 -22 22 -22 7 0 18 -6 24 -13 17 -16 29 -15 29 3 0 12 4 11
20 -5 11 -11 20 -27 20 -35 0 -20 17 -19 29 2 9 16 11 17 26 2 18 -17 75 -14
75 5 0 6 7 2 15 -8 11 -14 18 -17 26 -9 15 15 64 -31 55 -52 -9 -25 18 -46 52
-39 24 5 30 2 35 -16 3 -12 10 -19 15 -16 5 3 23 -7 40 -22 30 -25 33 -35 52
-155 12 -70 22 -133 25 -140 2 -6 6 -24 9 -39 l6 -28 490 0 c477 0 491 1 510
20 20 20 20 33 20 570 0 303 -3 550 -6 550 -3 0 -24 -13 -47 -29 -23 -15 -60
-38 -82 -50 -22 -11 -57 -35 -77 -52 -28 -24 -50 -33 -88 -37 l-51 -5 12 27
c7 14 15 26 19 26 3 0 6 16 6 35 0 30 -4 36 -33 46 -39 13 -41 23 -9 45 18 11
53 16 129 18 120 2 142 12 182 80 18 30 24 52 20 69 -4 13 1 48 9 78 25 81 22
273 -4 332 -21 46 -61 87 -86 87 -8 0 -14 5 -14 10 0 6 18 10 40 10 46 0 49 8
18 37 -69 62 -144 57 -209 -14 -41 -43 -82 -130 -87 -183 -4 -44 -1 -51 33
-89 21 -22 32 -41 26 -41 -6 0 -11 4 -11 9 0 5 -22 12 -49 16 -50 7 -75 30
-49 46 14 9 15 8 -27 30 -27 14 -30 20 -28 57 3 67 64 183 124 235 93 82 213
90 307 20 25 -19 32 -21 32 -8 0 20 -53 52 -108 67 -27 6 -39 14 -32 18 7 4
10 12 6 18 -3 6 -7 41 -7 78 -1 51 -5 72 -17 80 -15 11 -15 14 1 31 23 26 22
33 -7 31 -29 -3 -36 -32 -36 -148 0 -41 -4 -80 -8 -87 -9 -15 -61 -35 -72 -28
-5 3 -14 31 -20 63 -13 64 -78 207 -147 325 -54 93 -143 185 -236 246 -37 24
-67 45 -67 48 0 2 7 15 16 28 l16 25 -818 -1 c-467 0 -833 -5 -851 -10z m1027
-6 c-46 -17 -80 -37 -80 -47 0 -7 15 -19 32 -28 l33 -15 -40 -7 c-31 -6 -42
-4 -52 10 -37 50 -201 -34 -345 -179 -54 -53 -98 -94 -98 -91 0 16 118 159
160 194 25 21 74 53 110 71 73 37 245 98 275 98 14 -1 15 -2 5 -6z m307 1 c-3
-3 -12 -4 -19 -1 -8 3 -5 6 6 6 11 1 17 -2 13 -5z m-867 -394 c-6 -11 -13 -20
-16 -20 -2 0 0 9 6 20 6 11 13 20 16 20 2 0 0 -9 -6 -20z m805 -12 c52 -15 62
-29 64 -90 2 -45 -18 -32 -21 15 l-4 42 -16 -35 c-10 -19 -18 -30 -18 -25 -10
81 -20 95 -20 29 l-1 -49 -13 30 c-15 34 -21 28 -35 -45 -9 -41 -10 -39 -8 32
2 95 -8 93 -17 -3 -3 -39 -9 -76 -12 -81 -11 -18 -34 15 -35 51 -1 22 -5 11
-9 -31 -5 -37 -13 -75 -20 -85 -9 -14 -10 -6 -5 41 8 81 -6 63 -20 -26 -10
-64 -13 -70 -22 -48 -6 16 -7 37 -1 58 5 18 7 43 5 55 -3 17 -5 15 -6 -8 -1
-16 -5 -37 -11 -45 -7 -12 -10 -11 -15 5 -4 11 -10 29 -15 40 -8 18 -9 17 -9
-7 -1 -41 -19 -34 -27 10 -4 20 -9 31 -11 24 -7 -19 -23 -4 -23 21 0 12 -5 29
-11 37 -7 11 -8 3 -4 -30 6 -38 5 -43 -6 -32 -8 7 -14 33 -14 58 0 43 -8 51
-47 45 -5 0 -8 6 -8 14 0 27 -16 16 -38 -27 l-22 -43 6 40 c8 51 20 63 75 75
61 13 333 4 394 -12z m-505 -23 c0 -3 -9 -14 -20 -25 -19 -19 -20 -19 -20 -1
0 11 6 22 13 24 17 7 27 8 27 2z m682 -50 c6 -14 16 -21 27 -18 26 7 46 -24
80 -116 17 -47 31 -87 31 -90 0 -11 -70 74 -76 92 -3 9 -10 17 -15 17 -6 0 -7
5 -3 12 4 6 3 8 -4 4 -11 -6 -37 15 -44 36 -4 10 -8 10 -21 -1 -15 -12 -17
-10 -17 14 0 19 -4 26 -14 22 -14 -6 -27 36 -18 61 6 18 62 -7 74 -33z m-755
-27 c-13 -29 -34 -64 -46 -78 l-22 -25 21 35 c11 19 20 42 20 50 -1 8 -8 3
-16 -12 -8 -16 -17 -28 -20 -28 -8 0 8 54 23 78 13 21 53 44 62 36 1 -1 -8
-27 -22 -56z m-74 -15 c-9 -25 -33 -63 -61 -98 l-25 -30 8 35 c4 19 23 52 43
73 41 42 44 44 35 20z m209 -65 c3 -60 5 -61 25 -10 6 15 7 14 10 -5 2 -12 15
-33 29 -46 l25 -25 -33 -19 c-49 -29 -83 -40 -183 -59 -103 -19 -168 -51 -191
-95 -9 -17 -12 -29 -7 -27 129 63 120 61 224 55 69 -4 112 -2 143 7 l45 14 10
-31 c6 -17 9 -32 7 -34 -2 -3 -7 5 -11 16 -3 12 -11 21 -16 21 -5 0 0 -19 12
-41 28 -55 44 -39 25 26 -8 27 -13 52 -10 57 11 18 23 6 33 -34 l10 -43 -5 50
c-5 41 -3 48 7 38 7 -7 23 -13 36 -13 14 0 23 -6 23 -15 0 -9 9 -15 23 -15 24
0 62 20 39 20 -7 0 -10 5 -7 10 3 6 15 10 26 10 10 0 19 4 19 9 0 5 9 7 20 4
24 -6 24 -7 6 -36 -18 -29 -31 -133 -17 -142 7 -3 11 2 11 14 0 12 4 21 9 21
5 0 15 25 21 55 6 30 13 55 15 55 11 0 -6 -102 -20 -124 -21 -32 -16 -70 10
-74 14 -1 24 7 35 30 21 45 88 70 210 78 93 6 94 6 45 14 -50 9 -124 0 -212
-26 -23 -6 -45 -9 -49 -5 -3 3 -1 20 5 38 9 27 9 30 -4 19 -17 -14 -18 -10 -6
23 8 19 15 23 35 20 13 -3 79 0 145 6 135 14 169 6 228 -51 17 -16 36 -28 41
-24 12 7 22 -17 22 -55 0 -16 5 -29 10 -29 6 0 10 5 10 11 0 5 4 8 9 5 15 -10
21 -139 9 -199 -12 -56 -13 -58 -40 -52 -34 8 -36 -1 -6 -25 21 -16 21 -20 9
-44 -21 -38 -7 -42 23 -6 l26 32 0 -61 c0 -66 14 -80 29 -28 l9 32 1 -38 c1
-42 -57 -229 -99 -322 -58 -127 -205 -292 -360 -403 -64 -47 -65 -47 -156 -50
-122 -5 -229 12 -277 44 -52 34 -178 155 -251 240 -99 116 -174 281 -200 439
l-6 40 21 -25 c18 -20 21 -21 15 -5 -4 11 -9 54 -12 95 -2 41 -10 96 -18 123
-8 26 -10 47 -6 47 5 0 8 27 8 60 0 33 -5 57 -9 54 -5 -3 -9 1 -10 8 0 7 -2
24 -4 38 -2 14 -1 38 2 54 4 25 7 27 15 12 5 -9 7 -31 3 -49 -5 -24 -4 -28 4
-17 6 8 11 23 11 32 0 26 42 108 52 102 4 -3 8 1 8 8 0 7 22 38 48 69 26 30
59 71 74 90 l27 34 -5 -40 c-2 -22 -1 -33 2 -25 4 8 18 28 30 43 13 16 24 34
24 41 0 7 6 21 14 32 13 17 14 15 6 -21 -5 -22 -7 -41 -5 -43 4 -4 64 61 78
84 16 28 26 12 29 -48z m797 -24 c31 -36 40 -54 39 -80 -1 -19 -3 -34 -4 -34
-2 0 -19 31 -39 69 -48 96 -60 98 -19 3 38 -86 43 -112 19 -92 -8 7 -15 17
-15 22 0 5 -13 43 -30 85 -16 41 -30 79 -30 84 0 17 37 -9 79 -57z m-269 -24
l1 55 14 -33 c8 -18 24 -47 36 -64 18 -25 19 -32 8 -39 -32 -21 -219 17 -219
44 1 7 8 23 16 37 l15 25 -6 -34 -5 -35 35 50 c19 27 35 56 35 64 0 8 15 -17
34 -55 l35 -70 1 55z m870 65 c0 -8 -7 -15 -15 -15 -8 0 -15 7 -15 15 0 8 7
15 15 15 8 0 15 -7 15 -15z m-1296 -51 c3 -10 8 -27 12 -37 6 -17 5 -18 -15
-6 -15 10 -21 24 -21 48 0 37 17 33 24 -5z m557 -102 c-17 -5 -37 16 -46 48
-7 23 -5 22 26 -10 23 -24 30 -36 20 -38z m75 3 c59 -73 60 -79 11 -45 -25 16
-48 41 -51 54 -3 13 -9 32 -12 43 -8 22 -2 15 52 -52z m-1078 -4 c-12 -37 -28
-56 -28 -31 0 13 33 81 37 76 2 -2 -2 -22 -9 -45z m569 -47 c-8 -8 -47 15 -47
27 0 6 7 9 15 5 8 -3 15 0 16 7 0 7 5 2 11 -11 6 -12 9 -25 5 -28z m125 -59
c-2 -14 -8 -25 -12 -25 -4 0 -5 11 -2 25 2 14 8 25 12 25 4 0 5 -11 2 -25z
m-942 -315 c0 -5 -5 -10 -11 -10 -8 0 -8 -5 1 -15 13 -16 12 -16 -29 -19 -23
-2 -25 -26 -2 -26 26 0 34 -15 16 -30 -13 -11 -13 -14 2 -25 19 -14 11 -45
-13 -45 -22 0 -12 -24 12 -28 24 -3 51 -59 36 -74 -21 -21 -85 72 -95 140 -7
41 9 98 34 123 20 20 49 26 49 9z"/>
<path d="M1181 2204 c0 -11 3 -14 6 -6 3 7 2 16 -1 19 -3 4 -6 -2 -5 -13z"/>
<path d="M690 1821 c-18 -13 -17 -13 83 -11 89 1 168 -20 207 -55 21 -19 27
-21 37 -10 16 17 4 27 -67 55 -63 25 -234 38 -260 21z"/>
<path d="M1227 1725 c-15 -19 -24 -35 -19 -35 14 0 54 48 51 59 -2 6 -17 -5
-32 -24z"/>
<path d="M770 1743 c-73 -13 -96 -23 -97 -44 -2 -16 2 -19 15 -12 22 10 229
11 262 0 l25 -8 -23 20 c-34 29 -132 53 -182 44z"/>
<path d="M1090 1735 c0 -8 9 -19 21 -25 30 -17 31 -8 3 17 -17 15 -24 17 -24
8z"/>
<path d="M1430 1741 c-41 -13 -102 -49 -93 -54 4 -3 40 2 78 10 76 16 158 12
224 -12 43 -15 58 -10 36 11 -35 36 -189 64 -245 45z m147 -17 c-3 -3 -12 -4
-19 -1 -8 3 -5 6 6 6 11 1 17 -2 13 -5z"/>
<path d="M580 1711 c0 -5 9 -7 20 -4 11 3 20 7 20 9 0 2 -9 4 -20 4 -11 0 -20
-4 -20 -9z"/>
<path d="M1710 1691 c0 -21 27 -47 38 -37 4 4 -1 13 -10 20 -17 12 -16 14 5
24 22 10 21 11 -5 11 -21 1 -28 -4 -28 -18z"/>
<path d="M1085 1680 c-3 -5 3 -10 15 -10 12 0 34 -7 48 -16 25 -14 30 -14 72
5 44 20 44 21 14 21 -17 0 -37 -7 -44 -15 -11 -13 -15 -14 -29 -2 -22 19 -68
29 -76 17z"/>
<path d="M584 1666 c-10 -8 -16 -17 -13 -20 3 -4 17 2 30 13 27 23 13 28 -17
7z"/>
<path d="M1325 1660 c17 -4 60 -24 97 -44 56 -31 73 -36 100 -30 32 7 32 8 8
14 -19 5 -10 8 35 13 43 4 68 2 89 -8 16 -8 43 -15 60 -16 29 -1 30 -1 6 -8
-22 -6 -23 -8 -7 -14 10 -4 39 -7 64 -7 36 0 44 3 41 16 -6 30 -84 46 -244 50
-132 3 -156 6 -185 23 -19 12 -47 20 -64 20 l-30 -1 30 -8z"/>
<path d="M907 1629 c-32 -17 -64 -28 -70 -25 -7 2 -4 5 6 5 9 1 17 6 17 11 0
15 -116 2 -152 -16 -15 -8 -40 -14 -55 -15 l-28 -1 25 -8 c19 -6 21 -8 6 -9
-11 -1 -17 -3 -14 -6 3 -3 24 -3 47 1 24 4 37 10 31 14 -15 9 24 20 70 19 l35
-1 -45 -14 -45 -14 60 5 c41 4 77 15 113 36 29 16 69 33 90 38 l37 9 -35 1
c-20 0 -60 -13 -93 -30z"/>
<path d="M1040 1640 c0 -5 10 -20 22 -32 22 -22 23 -22 26 -4 3 11 -4 26 -14
33 -21 16 -34 17 -34 3z"/>
<path d="M1235 1620 c-27 -30 -12 -34 15 -5 13 14 19 25 13 25 -5 0 -18 -9
-28 -20z"/>
<path d="M1045 1549 c11 -6 33 -25 49 -42 19 -21 26 -26 22 -13 -4 11 -2 22 3
25 5 4 3 15 -6 26 -15 19 -15 19 -8 -4 l7 -24 -27 21 c-15 12 -35 22 -44 22
-12 -1 -12 -3 4 -11z"/>
<path d="M1232 1521 c-39 -49 -41 -60 -5 -26 30 27 39 30 48 15 8 -12 52 -13
59 -1 3 5 -9 15 -27 22 -17 7 -35 17 -38 21 -3 5 -20 -9 -37 -31z"/>
<path d="M998 1543 c7 -3 16 -2 19 1 4 3 -2 6 -13 5 -11 0 -14 -3 -6 -6z"/>
<path d="M962 1441 c-50 -40 -110 -107 -131 -148 -6 -12 -10 -46 -10 -75 1
-29 4 -39 6 -23 10 82 16 99 55 141 l41 45 23 -28 c26 -33 44 -25 20 9 -23 32
-20 53 10 77 30 23 64 27 82 9 7 -7 12 -8 12 -2 0 9 -41 34 -55 34 -2 0 -25
-18 -53 -39z"/>
<path d="M1257 1464 c-38 -20 -30 -26 15 -12 31 9 41 8 62 -6 34 -22 43 -59
21 -92 -23 -36 -10 -43 19 -11 30 32 30 32 73 6 56 -35 66 -67 73 -229 l7
-145 1 138 c2 155 -4 178 -65 257 -39 50 -127 110 -160 110 -10 -1 -31 -8 -46
-16z"/>
<path d="M1237 1379 c-37 -29 -34 -39 13 -39 22 0 40 -4 40 -9 0 -18 -123 -29
-238 -21 -51 3 -55 2 -97 -40 -25 -24 -43 -45 -42 -47 9 -9 67 24 67 38 0 25
25 30 104 24 39 -4 107 -2 151 3 90 10 121 4 177 -34 21 -15 41 -24 44 -21 8
8 -95 74 -129 83 -27 6 -27 7 -11 26 15 16 16 20 3 32 -26 26 -55 27 -82 5z"/>
<path d="M1004 1375 c-4 -8 -4 -22 0 -30 6 -17 36 -20 36 -4 0 8 12 10 35 6
40 -7 45 5 13 27 -29 20 -77 21 -84 1z"/>
<path d="M684 1320 c4 -14 14 -68 22 -119 15 -96 24 -126 24 -79 0 46 -31 203
-42 213 -8 7 -9 3 -4 -15z"/>
<path d="M1696 1251 c-14 -26 -56 -203 -56 -234 0 -29 13 10 29 89 10 49 26
107 35 128 20 47 14 60 -8 17z"/>
<path d="M1005 1250 c-3 -5 1 -10 10 -10 9 0 13 5 10 10 -3 6 -8 10 -10 10 -2
0 -7 -4 -10 -10z"/>
<path d="M1095 1201 c-51 -4 -83 -14 -117 -33 -26 -16 -55 -28 -64 -28 -13 0
-15 -3 -7 -11 25 -25 450 -19 520 8 8 3 -14 19 -59 39 -78 36 -109 39 -273 25z
m257 -44 c5 -8 -6 -14 -35 -19 -57 -11 -274 -16 -317 -9 -34 6 -34 7 -13 19
14 7 30 9 44 4 16 -6 32 -4 51 7 23 13 31 14 49 3 16 -10 24 -10 35 -1 9 7 30
9 56 5 24 -3 50 -1 58 4 17 12 62 4 72 -13z"/>
<path d="M970 1051 c0 -11 5 -23 10 -26 6 -3 10 0 10 7 0 8 3 9 8 3 12 -16 32
-16 32 0 0 9 -12 20 -26 25 -34 13 -34 13 -34 -9z"/>
<path d="M1331 1044 c0 -11 3 -14 6 -6 3 7 2 16 -1 19 -3 4 -6 -2 -5 -13z"/>
<path d="M937 1011 c3 -11 16 -29 29 -42 23 -22 25 -22 129 -9 66 7 143 9 204
5 105 -7 135 -1 144 34 7 29 -2 32 -32 11 -23 -18 -46 -20 -216 -22 -195 -2
-229 2 -239 27 -8 22 -25 18 -19 -4z"/>
<path d="M1051 924 c-12 -9 -31 -36 -42 -61 -25 -59 -24 -79 2 -26 12 23 32
54 46 68 31 30 27 41 -6 19z"/>
<path d="M1312 922 c6 -15 88 -84 88 -74 0 5 -18 26 -40 46 -39 35 -55 44 -48
28z"/>
<path d="M1094 865 c-4 -8 -4 -21 -1 -29 3 -8 -1 -20 -9 -26 -8 -7 -14 -24
-14 -39 1 -26 1 -26 14 5 8 18 19 35 25 38 7 5 8 13 1 25 -6 12 -5 22 2 29 9
9 9 12 0 12 -7 0 -15 -7 -18 -15z"/>
<path d="M1266 860 c12 -5 26 -22 32 -39 6 -17 13 -31 16 -31 7 0 -12 51 -26
67 -6 7 -18 13 -27 12 -11 0 -10 -3 5 -9z"/>
<path d="M1166 810 c1 -30 10 -51 12 -27 0 6 2 21 4 31 2 10 -1 20 -7 22 -5 2
-10 -10 -9 -26z"/>
<path d="M2310 2290 c0 -5 7 -7 15 -4 8 4 15 8 15 10 0 2 -7 4 -15 4 -8 0 -15
-4 -15 -10z"/>
<path d="M1140 174 c-81 -12 -268 -21 -300 -13 -19 5 -17 -8 12 -93 l23 -68
48 0 48 0 -6 34 -7 33 154 6 c143 5 221 17 242 37 5 5 -6 24 -26 45 -41 40
-51 41 -188 19z"/>
</g>
</svg>
