<?xml version="1.0" standalone="no"?>
<!DOCTYPE svg PUBLIC "-//W3C//DTD SVG 20010904//EN"
 "http://www.w3.org/TR/2001/REC-SVG-20010904/DTD/svg10.dtd">
<svg version="1.0" xmlns="http://www.w3.org/2000/svg"
 width="1040.000000pt" height="780.000000pt" viewBox="0 0 1040.000000 780.000000"
 preserveAspectRatio="xMidYMid meet">

<g transform="translate(0.000000,780.000000) scale(0.100000,-0.100000)"
fill="#000000" stroke="none">
<path d="M6235 7157 c-84 -22 -115 -44 -260 -188 l-140 -139 -61 25 c-125 50
-228 69 -379 68 -154 0 -229 -13 -367 -63 -87 -31 -252 -125 -246 -140 2 -4
326 -328 721 -720 l719 -712 35 52 c50 74 98 181 129 285 20 70 27 119 31 223
7 160 -6 249 -53 391 l-36 104 135 136 c172 174 192 209 192 341 0 85 -3 101
-29 153 -73 143 -241 222 -391 184z"/>
<path d="M7948 5229 c-20 -6 -55 -27 -78 -47 -159 -136 -65 -402 142 -402 96
0 168 42 209 122 75 146 -21 321 -183 333 -29 2 -69 -1 -90 -6z m121 -133 c78
-41 63 -157 -24 -186 -74 -24 -149 51 -125 125 22 66 87 93 149 61z"/>
<path d="M5455 5130 c110 -43 209 -149 243 -260 15 -49 17 -113 17 -590 l0
-535 -664 -3 -665 -2 -23 -22 -23 -21 0 -509 0 -508 -823 0 c-453 0 -919 -3
-1035 -7 l-212 -6 0 -274 0 -273 1035 0 1035 0 0 -85 0 -85 -572 -1 c-321 -1
-551 -5 -523 -10 64 -10 650 -29 903 -29 l192 0 0 -515 0 -515 564 0 564 0 7
-30 c3 -16 22 -43 41 -60 l35 -30 951 0 950 0 39 39 c22 21 39 48 39 60 l0 21
805 0 805 0 10 26 c6 14 10 129 10 255 l0 229 -243 0 -244 0 -6 142 c-4 79 -7
598 -7 1154 l0 1011 -23 21 -23 22 -1247 0 -1247 0 0 533 c0 586 -1 593 -62
689 -41 65 -99 115 -177 152 l-66 31 -205 2 -205 3 50 -20z m3000 -1655 l25
-24 0 -1171 c0 -1246 1 -1216 -45 -1234 -9 -3 -882 -6 -1940 -6 -1878 0 -1923
0 -1946 19 l-24 19 -3 1185 -2 1184 21 26 20 27 1935 0 1935 0 24 -25z"/>
<path d="M3084 5079 c-9 -15 14 -29 47 -29 31 0 54 -23 45 -45 -6 -18 -77 -21
-107 -5 -29 16 -25 -15 6 -45 33 -34 70 -32 107 5 25 26 29 36 24 63 -3 18
-16 40 -27 50 -24 19 -84 23 -95 6z"/>
<path d="M3744 5079 c-9 -14 14 -29 46 -29 35 0 53 -14 48 -36 -2 -14 -13 -20
-45 -22 -23 -2 -51 2 -63 8 -21 11 -25 4 -14 -25 9 -23 62 -48 90 -41 92 23
78 156 -16 156 -21 0 -42 -5 -46 -11z"/>
<path d="M4410 5080 c-20 -12 -10 -19 41 -28 38 -7 44 -11 44 -32 0 -21 -5
-26 -33 -28 -19 -2 -47 1 -63 7 -38 13 -38 -2 1 -41 26 -25 36 -29 63 -24 65
12 90 91 44 134 -24 23 -71 29 -97 12z"/>
<path d="M5070 5080 c-20 -13 -9 -21 39 -27 46 -6 64 -22 55 -48 -5 -13 -16
-16 -53 -13 -25 3 -54 8 -63 12 -26 12 -11 -30 20 -54 63 -50 147 13 121 90
-6 17 -19 35 -29 40 -23 13 -70 13 -90 0z"/>
<path d="M8260 4778 c-20 -14 -63 -69 -106 -138 l-72 -114 41 -19 c117 -53
308 -78 442 -57 44 7 83 14 87 16 4 3 -35 71 -87 151 -106 167 -125 183 -216
183 -42 0 -65 -6 -89 -22z"/>
<path d="M2835 4715 c-78 -28 -135 -122 -121 -198 8 -45 43 -96 85 -124 l34
-23 1295 0 1294 0 40 22 c114 64 117 232 6 305 l-42 28 -1275 2 c-1082 2
-1282 0 -1316 -12z"/>
<path d="M1870 1105 l0 -275 190 0 190 0 0 275 0 275 -190 0 -190 0 0 -275z"/>
<path d="M4305 753 c-104 -5 -363 -33 -417 -44 l-51 -11 24 -19 c65 -51 -3
-49 1812 -49 930 0 1688 2 1686 5 -12 11 -1358 94 -1869 115 -219 9 -1031 11
-1185 3z"/>
</g>
</svg>
