<?xml version="1.0" standalone="no"?>
<!DOCTYPE svg PUBLIC "-//W3C//DTD SVG 20010904//EN"
 "http://www.w3.org/TR/2001/REC-SVG-20010904/DTD/svg10.dtd">
<svg version="1.0" xmlns="http://www.w3.org/2000/svg"
 width="474.000000pt" height="474.000000pt" viewBox="0 0 474.000000 474.000000"
 preserveAspectRatio="xMidYMid meet">

<g transform="translate(0.000000,474.000000) scale(0.100000,-0.100000)"
fill="#000000" stroke="none">
<path d="M1570 3872 c0 -177 3 -240 15 -280 15 -49 15 -54 -2 -76 -10 -14 -34
-34 -55 -45 -41 -24 -93 -79 -103 -110 -3 -11 -14 -23 -23 -26 -42 -16 -95
-96 -128 -191 -18 -53 -46 -114 -63 -134 -16 -21 -44 -64 -61 -96 -18 -33 -36
-63 -41 -69 -5 -5 -9 -16 -9 -25 -1 -17 -44 -70 -58 -70 -5 0 -30 -20 -55 -45
-26 -25 -50 -45 -54 -45 -3 0 -25 11 -48 25 -25 14 -57 24 -76 24 -19 -1 -54
6 -79 16 -61 23 -157 37 -204 30 -26 -4 -46 -1 -62 10 -15 10 -33 13 -51 9
-22 -6 -25 -4 -20 10 6 15 0 17 -51 14 -48 -3 -59 0 -67 16 -15 29 -61 41 -81
22 -17 -17 -23 -18 -126 -18 l-68 0 0 -1125 0 -1124 23 7 c12 4 30 8 40 8 25
0 21 22 -10 44 -23 17 -25 22 -14 36 7 9 22 16 32 16 24 0 24 11 -1 33 -42 36
-28 45 92 58 119 14 135 22 83 44 -22 9 -60 18 -84 20 -27 3 -52 12 -64 24
-19 19 -19 19 3 31 12 7 33 10 46 7 13 -2 21 0 18 4 -10 16 19 9 40 -9 12 -10
47 -26 78 -36 33 -11 68 -31 82 -47 15 -17 39 -29 65 -34 23 -4 45 -14 50 -23
7 -13 12 -11 35 13 14 15 26 32 26 37 0 4 -21 29 -48 54 -40 39 -53 66 -37 82
2 2 17 -4 33 -14 35 -20 80 -12 50 10 -9 7 -31 38 -48 69 -30 55 -29 62 6 58
26 -3 21 30 -12 73 -19 25 -34 49 -34 55 0 6 22 13 50 17 43 6 48 9 40 24 -13
25 -4 30 53 30 41 0 50 -3 54 -21 4 -16 8 -17 14 -7 7 10 9 9 9 -4 0 -10 -6
-18 -12 -18 -9 0 -10 -2 -2 -8 7 -4 13 -16 15 -27 2 -11 13 -24 24 -30 18 -9
20 -19 17 -102 -3 -86 -4 -92 -25 -95 -18 -2 -23 -10 -25 -45 -3 -37 0 -43 24
-56 24 -12 28 -22 30 -60 3 -60 8 -67 53 -67 49 0 61 14 61 71 l0 48 105 3
c58 2 105 0 105 -4 0 -5 -17 -8 -39 -8 -47 0 -63 -17 -55 -59 9 -42 35 -54
100 -46 65 8 100 33 108 80 5 26 14 39 32 45 22 9 25 15 22 52 -2 36 -7 44
-25 46 -21 3 -22 9 -25 95 -3 83 -1 93 17 102 15 8 20 21 20 55 l0 45 -230 5
c-153 4 -196 7 -130 9 55 2 88 6 74 8 -20 3 -26 10 -26 29 0 13 5 24 13 24 12
0 26 18 36 45 1 6 26 8 56 7 l52 -4 0 31 c0 36 -2 35 42 16 25 -10 38 -11 46
-3 10 10 138 13 227 6 33 -2 42 1 50 19 12 29 43 31 185 14 143 -18 357 -16
379 3 9 8 26 17 39 21 12 3 20 10 17 15 -3 4 2 10 10 13 12 5 12 10 -2 37 -13
27 -20 31 -43 26 -25 -4 -33 1 -69 49 -23 30 -46 66 -53 80 -6 14 -15 25 -20
25 -4 0 -8 11 -8 24 0 15 -7 26 -20 29 -28 7 -25 27 5 27 14 0 29 -8 34 -19
10 -17 23 -19 151 -19 77 -1 142 4 145 9 4 5 33 9 66 9 62 0 86 9 132 49 28
25 54 28 167 19 30 -3 34 0 32 16 -6 31 -44 76 -66 76 -12 0 -40 19 -63 41
-50 47 -57 84 -19 99 13 5 35 20 48 33 12 14 33 28 45 31 18 6 24 2 29 -18 6
-24 9 -25 48 -20 22 4 48 13 57 20 20 18 27 18 46 -2 10 -9 25 -13 37 -10 12
3 36 6 54 6 17 0 32 5 32 10 0 6 -7 10 -15 10 -9 0 -18 7 -21 15 -5 11 -16 14
-46 10 -22 -3 -44 -8 -49 -11 -5 -3 -20 6 -34 20 -14 14 -31 23 -39 20 -18 -7
-117 34 -133 54 -18 22 -16 67 3 83 13 10 19 10 36 0 12 -7 46 -15 76 -17 30
-2 61 -9 68 -15 7 -6 43 -13 79 -15 55 -3 69 0 85 16 13 13 34 20 59 20 22 0
43 4 46 10 7 12 -16 22 -105 45 -36 9 -87 24 -114 32 -36 11 -51 11 -56 3 -4
-7 -32 -13 -61 -15 -30 -1 -62 -6 -71 -10 -12 -5 -20 -2 -24 9 -3 9 -17 16
-29 16 -13 0 -27 5 -31 11 -4 7 -22 9 -46 6 -28 -4 -41 -1 -45 9 -3 8 -9 12
-13 9 -4 -3 -11 7 -15 22 -4 17 -2 29 4 31 6 2 11 12 11 22 0 23 42 59 98 84
23 10 42 23 42 28 0 4 6 8 14 8 8 0 27 11 42 23 33 29 25 51 -17 42 -26 -6
-30 -3 -43 32 -9 21 -20 45 -26 53 -5 8 -14 25 -20 38 -5 12 -14 22 -19 22 -6
0 -25 15 -43 34 -22 23 -32 44 -32 66 -1 19 -7 34 -14 36 -7 1 -8 0 -2 -3 5
-2 7 -9 4 -14 -3 -6 -11 -6 -20 2 -7 6 -21 8 -30 5 -23 -9 -70 4 -52 15 10 7
10 9 0 9 -10 0 -10 5 -2 20 6 11 15 20 21 20 6 0 8 -9 4 -20 -3 -11 -2 -20 4
-20 5 0 13 15 16 33 4 17 21 47 37 65 27 31 28 36 15 55 -11 17 -26 23 -66 25
-28 2 -51 5 -51 7 0 12 105 100 118 100 10 0 19 -14 25 -37 11 -46 21 -48 42
-8 21 40 19 60 -5 60 -11 0 -20 7 -20 15 0 13 4 14 20 5 38 -20 89 7 104 58 6
16 3 22 -8 22 -11 0 -16 9 -16 28 0 36 8 44 31 31 11 -5 19 -6 18 -2 -3 20 2
27 11 13 7 -12 11 -8 16 18 4 17 13 32 20 32 8 0 14 9 14 20 0 11 4 20 10 20
9 0 14 -15 23 -65 2 -17 6 -15 20 13 23 42 14 102 -14 102 -11 0 -24 10 -29
23 -5 12 -9 16 -9 8 -1 -11 -5 -11 -19 2 -26 24 -59 21 -74 -5 -6 -13 -11 -51
-11 -85 1 -56 -2 -64 -24 -78 -14 -9 -27 -15 -29 -12 -7 7 -12 107 -5 107 3 0
15 17 26 38 11 20 24 41 30 45 5 5 0 5 -12 2 -16 -4 -23 -2 -23 7 0 16 -48 40
-56 27 -3 -5 -12 -3 -20 5 -18 19 -34 13 -79 -28 -23 -22 -43 -31 -62 -30 -16
1 -28 2 -28 4 0 1 -20 3 -45 5 -48 4 -94 -20 -105 -54 -4 -13 -12 -17 -25 -14
-21 6 -88 -31 -80 -44 9 -15 -78 -14 -114 1 -20 8 -34 11 -31 6 11 -17 -7 -11
-22 8 -10 13 -13 13 -11 2 2 -10 -6 -16 -27 -17 -16 -1 -22 1 -13 3 10 3 21
16 24 29 6 23 29 39 43 30 15 -9 7 60 -8 72 -15 10 -14 12 1 18 10 4 29 -2 47
-16 41 -30 52 -17 12 16 -37 32 -39 45 -8 45 20 1 20 2 5 11 -10 5 -18 14 -18
19 0 13 47 13 55 0 3 -5 11 -10 16 -10 5 0 1 9 -9 20 -12 13 -26 18 -38 14
-13 -4 -15 -3 -6 3 10 7 9 13 -5 24 -46 39 -106 69 -129 67 -19 -2 -29 4 -42
27 -9 17 -21 33 -26 36 -5 4 -7 23 -4 42 2 20 0 33 -4 31 -4 -3 -8 2 -8 10 0
9 7 16 16 16 8 0 13 4 10 9 -3 4 6 6 19 3 15 -2 25 0 25 7 0 6 -6 11 -14 11
-7 0 -19 7 -26 15 -7 8 -21 15 -31 15 -18 0 -19 -12 -19 -228z m770 -211 c0
-6 -4 -13 -10 -16 -5 -3 -10 1 -10 9 0 9 5 16 10 16 6 0 10 -4 10 -9z m30
-172 c0 -5 -4 -9 -10 -9 -5 0 -10 7 -10 16 0 8 5 12 10 9 6 -3 10 -10 10 -16z
m-809 -212 c31 -30 96 -77 105 -77 4 0 22 -11 40 -25 18 -14 42 -25 53 -25 25
0 31 -26 14 -67 -7 -18 -10 -39 -7 -47 3 -9 -5 -21 -23 -33 -15 -10 -34 -26
-41 -35 -7 -10 -18 -16 -23 -13 -5 4 -22 -6 -38 -22 -37 -37 -151 -83 -151
-61 0 6 -6 6 -15 -2 -12 -10 -24 -9 -61 5 -33 12 -42 20 -33 26 11 6 5 17 -25
42 -37 32 -42 57 -12 57 8 0 21 16 30 35 9 19 21 37 26 40 6 4 7 11 4 17 -5 7
5 9 29 4 l37 -7 -3 38 c-1 21 -6 44 -10 51 -11 17 9 15 38 -4 27 -17 55 -13
55 9 0 14 -52 57 -70 57 -5 0 -10 5 -10 10 0 6 6 10 14 10 7 0 16 9 19 20 7
26 29 25 58 -3z m596 -309 c-3 -7 -5 -2 -5 12 0 14 2 19 5 13 2 -7 2 -19 0
-25z m160 -574 c-2 -2 -12 -1 -22 3 -18 6 -18 7 1 13 17 7 33 -5 21 -16z m23
-34 c0 -11 -4 -20 -10 -20 -5 0 -10 5 -10 10 0 6 -9 10 -21 10 -11 0 -17 5
-14 10 3 6 17 10 31 10 17 0 24 -5 24 -20z m355 -50 c3 -5 2 -10 -4 -10 -5 0
-13 5 -16 10 -3 6 -2 10 4 10 5 0 13 -4 16 -10z m-1525 -1115 l0 -25 -105 0
c-98 0 -105 -1 -105 -20 0 -17 8 -19 83 -22 l82 -3 5 -98 c3 -53 7 -96 10 -95
3 1 15 -4 27 -10 29 -16 23 -46 -9 -50 -22 -3 -26 -9 -31 -48 -2 -25 -10 -51
-16 -57 -6 -6 -37 -13 -69 -15 -55 -4 -60 -3 -65 19 -9 33 -1 39 49 39 42 0
44 1 44 30 l0 30 -135 0 -135 0 0 -60 0 -60 -30 0 -30 0 0 60 c0 57 -1 60 -25
60 -20 0 -25 5 -25 25 0 20 5 25 25 25 24 0 24 1 27 103 l3 102 83 3 c73 3 82
5 82 22 0 18 -9 20 -102 22 -98 3 -103 4 -106 26 l-3 22 235 0 236 0 0 -25z
m-983 -218 c18 -16 30 -34 27 -39 -12 -19 -86 -8 -122 19 -20 15 -38 28 -40
29 -1 0 0 8 3 16 11 27 94 11 132 -25z"/>
<path d="M800 1055 c0 -24 3 -25 55 -25 52 0 55 1 55 25 0 24 -3 25 -55 25
-52 0 -55 -1 -55 -25z"/>
<path d="M967 1073 c-4 -3 -7 -15 -7 -25 0 -15 8 -18 55 -18 52 0 55 1 55 25
0 23 -3 25 -48 25 -27 0 -52 -3 -55 -7z"/>
<path d="M802 953 c3 -26 6 -28 53 -28 47 0 50 2 53 28 3 27 3 27 -53 27 -56
0 -56 0 -53 -27z"/>
<path d="M964 965 c-13 -32 4 -45 56 -45 49 0 50 1 50 30 0 29 -1 30 -50 30
-36 0 -52 -4 -56 -15z"/>
<path d="M1709 4026 c8 -10 24 -22 35 -28 20 -11 20 -10 5 13 -9 13 -25 26
-35 28 -16 3 -17 1 -5 -13z"/>
<path d="M1770 3912 c0 -14 39 -46 47 -39 3 4 -2 16 -12 27 -19 21 -35 26 -35
12z"/>
<path d="M1890 3892 c6 -13 14 -21 18 -18 3 4 -2 14 -12 24 -18 16 -18 16 -6
-6z"/>
<path d="M1890 3730 c0 -5 5 -10 11 -10 5 0 7 5 4 10 -3 6 -8 10 -11 10 -2 0
-4 -4 -4 -10z"/>
<path d="M3514 3690 c-38 -27 -99 -70 -136 -95 -38 -26 -71 -51 -74 -57 -12
-20 147 75 191 114 11 10 38 34 60 53 56 49 41 44 -41 -15z"/>
<path d="M2675 3498 c-7 -21 10 -83 23 -82 7 1 21 2 33 3 13 0 25 14 35 37 17
41 12 57 -8 25 -17 -27 -26 -26 -38 4 -10 26 -38 34 -45 13z"/>
<path d="M2903 3483 c-3 -10 -12 -25 -19 -33 -7 -8 -14 -31 -16 -50 -5 -51 24
-52 56 -1 14 21 30 42 36 46 18 11 11 31 -15 43 -33 15 -34 15 -42 -5z"/>
<path d="M2632 3455 c0 -16 2 -22 5 -12 2 9 2 23 0 30 -3 6 -5 -1 -5 -18z"/>
<path d="M2929 3312 c-8 -2 -21 -6 -29 -8 -8 -3 -15 -4 -15 -3 0 1 -10 -3 -22
-9 -12 -7 -42 -39 -68 -73 -43 -56 -46 -64 -43 -112 3 -46 6 -52 27 -55 14 -2
34 -10 46 -18 25 -17 100 -37 200 -54 96 -17 260 -4 293 23 14 11 9 87 -8 133
-5 11 -3 28 3 39 7 14 7 20 -2 23 -7 2 -27 17 -44 32 -18 15 -56 33 -87 40
-30 7 -66 18 -80 25 -25 12 -145 24 -171 17z m305 -167 c3 -9 -1 -18 -9 -21
-18 -7 -47 14 -39 27 9 15 41 10 48 -6z"/>
<path d="M2650 3023 c-17 -22 -20 -35 -14 -66 6 -37 5 -40 -15 -34 -29 7 -33
-4 -25 -72 7 -63 24 -81 79 -81 13 0 28 -7 33 -15 7 -13 10 -12 20 10 7 15 20
25 32 25 11 0 20 2 20 5 0 7 -31 88 -41 107 -5 9 -11 36 -15 60 -7 45 -28 88
-44 88 -4 0 -18 -12 -30 -27z"/>
<path d="M2733 2573 c-21 -7 -15 -71 7 -93 20 -20 34 -23 106 -20 23 1 45 -3
49 -9 9 -16 45 -13 45 3 0 8 -9 18 -20 21 -11 3 -20 10 -20 14 0 24 -139 93
-167 84z"/>
<path d="M4272 2187 c24 -19 83 -132 101 -192 8 -27 15 -81 16 -120 2 -83 -21
-224 -39 -235 -8 -5 -9 -16 -5 -30 5 -17 4 -21 -6 -15 -9 6 -11 3 -6 -8 3 -10
2 -17 -4 -17 -7 0 -8 13 -4 33 l6 32 -16 -34 c-17 -39 -18 -44 -6 -36 20 12
21 -16 3 -43 -11 -15 -31 -49 -45 -77 -14 -27 -41 -66 -60 -85 -19 -20 -41
-49 -50 -65 -8 -17 -29 -48 -46 -70 -17 -22 -41 -53 -54 -69 -35 -46 -99 -157
-94 -162 3 -3 30 32 61 78 31 46 98 142 151 213 156 213 202 303 231 444 20
102 14 184 -22 294 -29 87 -81 171 -110 175 -18 3 -18 2 -2 -11z"/>
<path d="M4115 1941 c-38 -17 -72 -47 -64 -55 2 -2 26 1 53 8 47 12 81 40 70
57 -7 12 -13 11 -59 -10z"/>
<path d="M3965 1858 c-11 -6 -31 -22 -45 -36 -21 -22 -22 -24 -5 -18 11 4 32
9 46 11 25 4 26 3 18 -43 -14 -86 -11 -123 13 -144 l22 -19 19 53 c10 29 21
67 24 85 6 38 -14 106 -30 100 -7 -2 -19 1 -27 9 -11 9 -20 10 -35 2z"/>
<path d="M3812 1747 c-34 -37 -45 -77 -45 -177 1 -147 52 -264 84 -188 11 27
10 35 -6 62 -23 39 -35 259 -15 296 16 30 7 34 -18 7z"/>
<path d="M1409 1371 c11 -7 11 -9 0 -14 -8 -3 -4 -6 9 -6 13 -1 22 5 22 14 0
9 -9 15 -22 15 -17 0 -19 -3 -9 -9z"/>
<path d="M3981 1351 c-1 -33 -2 -34 -16 -15 -13 18 -14 16 -15 -21 0 -31 -3
-37 -11 -25 -7 11 -9 3 -4 -30 16 -117 30 -137 64 -94 11 14 18 31 15 36 -4 6
-12 49 -19 97 -7 47 -13 71 -14 52z"/>
<path d="M1427 1269 c-9 -5 -23 -7 -30 -3 -6 4 -9 4 -5 -1 4 -4 3 -14 -3 -21
-7 -9 -7 -19 1 -34 12 -22 5 -43 -8 -24 -60 89 -98 105 -141 60 -25 -27 -22
-39 26 -103 l24 -32 -43 -3 -43 -3 0 -45 c0 -38 4 -47 24 -55 23 -10 23 -12
19 -112 -4 -96 -3 -103 19 -127 25 -27 47 -33 58 -16 3 6 17 -1 31 -15 14 -14
27 -25 30 -25 27 0 108 70 132 115 10 18 11 17 12 -11 0 -17 9 -43 21 -58 18
-23 28 -26 79 -26 79 0 107 24 119 99 8 48 6 57 -13 76 -19 19 -21 30 -18 132
3 102 1 114 -18 133 -16 16 -18 24 -10 40 14 26 6 39 -37 56 -41 18 -56 10
-87 -40 l-23 -38 -29 43 c-31 45 -56 57 -87 38z m66 -58 c15 -22 27 -44 27
-50 0 -6 8 -11 18 -11 11 0 29 20 47 50 24 41 33 49 50 44 34 -11 36 -19 10
-55 l-26 -34 36 -3 36 -3 -3 -102 -3 -102 -38 -3 -38 -3 3 -62 c3 -58 4 -62
28 -62 20 0 26 7 33 40 12 50 11 49 36 35 18 -9 20 -17 15 -53 -10 -61 -27
-77 -89 -77 -28 0 -56 5 -63 12 -7 7 -12 43 -12 90 0 77 0 78 -25 78 -21 0
-25 -5 -25 -30 0 -48 -24 -93 -71 -133 -45 -39 -56 -41 -73 -14 -9 14 -3 24
31 55 68 59 82 119 31 124 l-33 3 0 100 0 100 33 5 33 5 -25 35 -24 35 22 12
c29 17 28 17 59 -26z m-156 -14 l33 -42 -22 -18 c-22 -18 -23 -18 -50 15 -35
42 -44 68 -27 79 23 15 33 10 66 -34z m3 -219 l0 -101 25 23 25 23 9 -24 c8
-21 3 -31 -45 -79 -51 -51 -56 -54 -66 -35 -7 12 -10 63 -9 132 l2 113 -25 0
c-21 0 -26 5 -26 25 0 24 3 25 55 25 l55 0 0 -102z m307 -120 c-2 -13 -4 -5
-4 17 -1 22 1 32 4 23 2 -10 2 -28 0 -40z"/>
<path d="M1452 1048 l3 -53 88 -3 87 -3 0 56 0 55 -91 0 -90 0 3 -52z m148 -3
c0 -24 -3 -25 -60 -25 -57 0 -60 1 -60 25 0 24 3 25 60 25 57 0 60 -1 60 -25z"/>
<path d="M2583 1270 c-13 -5 -23 -16 -23 -25 0 -12 -12 -15 -53 -15 -29 0 -58
-5 -65 -12 -9 -9 -16 -5 -32 15 -24 31 -46 34 -78 11 -29 -20 -28 -37 8 -95
l29 -48 -32 -3 c-19 -2 -35 -11 -42 -23 -10 -19 -19 -20 -274 -17 -205 2 -266
-1 -273 -10 -13 -21 -9 -75 6 -87 9 -8 90 -11 272 -9 l259 3 3 23 c4 23 10 26
36 16 12 -5 16 -20 16 -61 0 -46 -5 -61 -31 -94 l-31 -39 19 -37 c23 -47 33
-50 71 -18 31 26 31 26 64 8 26 -14 65 -18 186 -21 188 -5 199 -3 208 43 4 21
2 41 -5 49 -7 9 -11 76 -12 196 0 100 -3 188 -6 196 -4 10 -23 14 -67 14 -54
0 -62 3 -71 23 -11 24 -46 32 -82 17z m64 -40 c5 -17 14 -20 69 -20 l64 0 0
-65 0 -65 -135 0 c-112 0 -135 -2 -135 -15 0 -12 24 -15 138 -17 l137 -3 3
-89 c4 -126 -23 -159 -101 -123 -21 9 -27 19 -27 45 0 47 -28 43 -32 -5 -2
-30 -7 -38 -23 -38 -16 0 -21 8 -23 38 -2 24 -8 37 -18 37 -10 0 -14 -13 -14
-45 0 -41 -2 -45 -25 -45 -24 0 -25 3 -26 58 l0 57 -19 -42 c-19 -43 -27 -49
-46 -35 -5 4 3 -5 18 -20 l28 -28 166 0 c147 0 165 -2 160 -16 -3 -9 -6 -20
-6 -25 0 -5 -70 -9 -162 -9 -153 0 -166 2 -204 24 l-42 24 -30 -31 -31 -30
-12 27 c-11 24 -10 29 20 60 31 32 32 35 29 107 -3 69 -4 74 -28 79 -16 4 -25
13 -25 25 0 17 8 20 52 23 l52 3 3 -83 c3 -79 4 -82 17 -53 7 17 16 84 20 150
l6 120 63 3 c49 2 63 6 59 17 -7 18 1 25 31 25 15 0 26 -7 29 -20z m-234 -42
c15 -20 27 -41 27 -47 0 -10 -39 -36 -44 -29 -2 2 -17 24 -34 50 l-32 47 22
15 c12 9 25 12 28 8 3 -4 18 -24 33 -44z m-145 -180 l3 -28 -250 0 -251 0 0
30 0 30 248 -2 247 -3 3 -27z"/>
<path d="M2510 1140 c0 -19 7 -20 110 -20 103 0 110 1 110 20 0 19 -7 20 -110
20 -103 0 -110 -1 -110 -20z"/>
<path d="M2550 980 c0 -11 7 -20 15 -20 8 0 15 9 15 20 0 11 -7 20 -15 20 -8
0 -15 -9 -15 -20z"/>
<path d="M2630 980 c0 -11 7 -20 15 -20 8 0 15 9 15 20 0 11 -7 20 -15 20 -8
0 -15 -9 -15 -20z"/>
<path d="M2702 983 c5 -26 37 -29 35 -4 -1 13 -8 21 -20 21 -12 0 -17 -6 -15
-17z"/>
<path d="M2707 903 c-3 -5 -1 -16 2 -26 6 -17 8 -17 20 -3 7 8 10 20 6 26 -7
12 -22 13 -28 3z"/>
<path d="M2903 1220 c-47 -21 -83 -70 -83 -111 0 -30 15 -39 66 -39 27 0 37 5
46 25 7 16 19 25 34 25 49 0 38 -43 -17 -69 -34 -16 -34 -17 -37 -91 -2 -41
-6 -95 -9 -119 -6 -51 10 -71 60 -71 49 0 67 16 67 60 0 21 -4 41 -9 44 -5 3
-7 25 -4 49 5 33 14 49 44 75 48 41 64 87 50 140 -13 46 -36 69 -88 88 -51 18
-70 17 -120 -6z m159 -49 c48 -54 31 -129 -37 -170 -19 -11 -35 -24 -34 -28 1
-4 1 -23 0 -41 -1 -30 -4 -33 -28 -30 -26 3 -28 6 -31 59 l-3 56 39 15 c51 20
72 68 42 98 -28 28 -57 25 -88 -7 -19 -20 -35 -27 -54 -25 -32 4 -35 18 -12
51 49 69 153 81 206 22z m-64 -338 c3 -32 2 -33 -32 -33 -33 0 -36 3 -36 28 0
36 8 44 40 40 20 -2 26 -9 28 -35z"/>
<path d="M515 719 c6 -18 4 -19 -12 -11 -23 13 -39 4 -45 -23 -6 -30 12 -44
43 -33 21 7 26 15 27 48 1 23 -3 40 -9 40 -6 0 -8 -9 -4 -21z"/>
<path d="M1373 623 c-8 -3 -13 -24 -13 -54 0 -45 3 -50 27 -60 35 -13 89 -3
97 17 9 24 7 63 -4 85 -8 14 -21 19 -53 18 -23 0 -48 -3 -54 -6z m80 -50 c0
-13 -1 -27 -2 -33 0 -5 -14 -10 -31 -10 -28 0 -30 3 -30 36 0 34 1 35 32 32
27 -2 32 -7 31 -25z"/>
<path d="M2786 614 c-20 -19 -21 -78 -2 -93 8 -7 34 -11 58 -9 l43 3 3 43 c2
24 -2 50 -9 58 -15 19 -74 18 -93 -2z m82 -46 c-3 -29 -7 -33 -35 -36 -32 -3
-33 -2 -33 32 0 35 1 36 36 36 34 0 35 -1 32 -32z"/>
<path d="M401 599 c-71 -21 -110 -69 -111 -134 0 -67 27 -99 117 -133 82 -32
109 -55 83 -72 -25 -16 -61 -11 -106 15 -50 29 -66 26 -96 -23 l-22 -35 37
-32 c83 -72 229 -73 287 -3 l19 23 17 -24 c29 -41 75 -53 172 -45 48 4 93 11
100 17 8 6 12 44 12 121 l0 111 44 -100 c48 -111 48 -134 -2 -147 -35 -9 -51
-53 -32 -89 11 -19 18 -21 62 -17 76 8 94 33 177 247 80 205 80 211 4 211 -44
0 -44 0 -67 -52 -12 -29 -26 -62 -30 -73 -7 -16 -14 -7 -41 53 l-34 72 -44 0
c-47 0 -75 -19 -61 -42 4 -7 -4 -3 -17 9 -30 27 -71 43 -113 43 -46 0 -136
-28 -142 -45 -8 -20 15 -85 32 -92 12 -4 11 -8 -3 -18 -16 -12 -21 -9 -45 19
-25 31 -56 48 -142 78 -22 7 -41 18 -43 24 -6 19 38 24 81 8 23 -9 49 -18 58
-21 11 -3 25 8 44 36 26 41 27 42 8 62 -38 43 -140 66 -203 48z m151 -45 c37
-19 41 -29 20 -54 -16 -20 -19 -20 -47 -6 -39 21 -109 21 -129 0 -35 -34 -8
-64 82 -90 73 -22 112 -58 119 -111 15 -111 -123 -171 -247 -108 -28 14 -50
29 -50 33 0 4 9 18 19 31 l18 24 30 -21 c67 -48 163 -34 163 23 0 33 -21 50
-82 70 -115 38 -154 87 -124 158 29 70 142 95 228 51z m278 -101 c42 -24 50
-53 50 -174 0 -89 -3 -111 -15 -115 -8 -4 -21 -1 -29 5 -10 8 -21 8 -40 1 -58
-22 -133 -3 -156 39 -16 31 -12 76 10 104 22 28 105 53 145 43 29 -7 31 1 9
32 -17 25 -61 29 -113 11 -37 -13 -37 -13 -46 22 -6 23 -2 27 27 36 52 17 126
15 158 -4z m184 -80 c22 -51 42 -93 45 -93 3 0 22 42 41 93 34 88 37 92 68 95
17 2 32 0 32 -5 0 -22 -146 -369 -162 -385 -11 -11 -33 -18 -58 -18 -35 0 -40
3 -40 23 0 17 8 25 33 32 25 8 34 17 41 46 8 31 2 50 -47 164 -31 71 -54 132
-51 137 3 5 18 8 32 6 24 -3 32 -15 66 -95z"/>
<path d="M710 282 c-19 -16 -21 -22 -11 -40 9 -16 21 -22 47 -22 51 0 74 15
74 50 0 29 -2 30 -44 30 -27 0 -52 -7 -66 -18z m80 -16 c0 -19 -35 -30 -57
-17 -16 9 -16 11 7 20 36 14 50 13 50 -3z"/>
<path d="M3285 586 c-47 -20 -87 -73 -83 -110 3 -27 7 -31 42 -37 35 -6 43 -3
65 22 28 32 58 38 67 14 8 -20 -12 -43 -53 -60 l-34 -15 2 -75 c1 -41 -1 -78
-4 -82 -12 -11 -8 -78 5 -91 22 -22 28 -13 21 33 l-6 45 37 0 c24 0 36 -5 36
-14 0 -7 7 -19 15 -26 13 -11 15 -8 15 18 0 17 -3 33 -8 36 -4 2 -6 24 -4 48
3 36 9 47 33 61 44 25 73 95 60 145 -23 85 -120 126 -206 88z m141 -31 c30
-19 48 -68 40 -109 -6 -32 -46 -78 -76 -88 -6 -2 -14 -22 -17 -46 -5 -36 -9
-42 -29 -42 -20 0 -24 5 -24 33 0 17 -3 42 -6 55 -5 18 0 25 28 36 47 20 60
38 56 78 -3 30 -6 33 -40 36 -30 3 -43 -2 -62 -22 -24 -27 -42 -32 -64 -17
-12 7 -11 14 2 39 33 64 129 87 192 47z"/>
<path d="M1543 580 c-18 -7 -23 -17 -23 -48 l0 -38 -72 -2 c-39 -2 -75 -5 -80
-8 -11 -7 -10 -315 1 -332 5 -9 25 -12 57 -10 l49 3 3 118 c2 107 4 117 21
117 17 0 19 -10 23 -95 3 -85 5 -97 28 -119 20 -20 37 -25 85 -27 57 -3 61 -1
73 24 19 40 4 81 -34 87 -28 5 -29 7 -29 65 0 59 1 60 30 65 29 5 30 7 30 55
0 48 -1 50 -30 55 -26 4 -30 10 -33 43 -3 30 -9 40 -28 47 -30 12 -42 12 -71
0z m67 -64 c0 -44 0 -45 38 -48 32 -3 37 -7 40 -30 3 -24 0 -27 -35 -30 l-38
-3 -3 -78 c-3 -86 6 -107 45 -107 21 0 24 -4 21 -27 -3 -26 -6 -28 -48 -26
-69 3 -80 23 -80 144 l0 99 -28 0 c-36 0 -40 5 -34 35 3 20 10 25 33 25 27 0
29 3 29 38 0 45 5 52 37 52 21 0 23 -5 23 -44z m-160 -195 c0 -90 -4 -152 -10
-156 -6 -3 -19 -3 -30 0 -19 6 -20 15 -20 156 l0 149 30 0 30 0 0 -149z"/>
<path d="M0 275 l0 -275 80 0 c46 0 90 5 103 13 36 20 67 50 67 64 0 15 -44
88 -59 97 -6 4 -4 22 5 49 12 33 12 46 3 64 -10 18 -8 26 10 49 24 31 28 64 6
64 -8 0 -15 4 -15 9 0 5 -13 14 -30 20 -16 6 -43 16 -59 22 -21 8 -32 20 -36
40 -6 25 -46 59 -70 59 -3 0 -5 -124 -5 -275z"/>
<path d="M1907 484 c-26 -8 -50 -21 -53 -29 -8 -20 14 -82 31 -89 12 -4 10
-11 -10 -30 -50 -50 -41 -136 18 -178 29 -21 41 -23 131 -20 55 1 105 7 113
13 7 7 13 32 13 58 1 46 1 46 16 21 28 -44 64 -64 127 -68 38 -3 54 -8 46 -13
-22 -13 -71 -10 -103 6 -36 19 -59 12 -74 -21 -22 -46 -15 -64 31 -84 51 -24
155 -27 196 -5 41 21 77 68 85 110 l7 36 30 -25 c35 -30 84 -41 131 -30 18 4
50 6 71 5 21 -2 44 2 52 9 9 7 15 8 20 0 3 -5 26 -10 50 -10 32 0 45 5 50 17
6 17 7 17 16 0 13 -23 94 -24 103 -1 3 9 6 58 6 109 0 83 2 96 19 105 33 17
60 12 66 -12 3 -13 6 -66 8 -118 l2 -95 44 -3 c28 -2 47 1 52 10 5 7 9 65 9
128 0 90 -4 123 -18 150 -23 47 -74 73 -127 64 -22 -3 -66 -5 -97 -5 -43 2
-59 -2 -66 -15 -8 -15 -10 -15 -15 0 -5 11 -19 16 -51 16 -51 0 -72 -23 -62
-66 9 -33 -5 -30 -26 5 -37 66 -116 86 -213 53 -52 -18 -61 -19 -68 -6 -6 10
-24 15 -55 14 -26 0 -68 2 -93 6 -59 8 -112 -16 -148 -66 l-26 -37 -20 36
c-37 66 -116 86 -218 55z m175 -43 l33 -29 3 -121 c3 -104 1 -122 -12 -127 -9
-3 -22 -1 -30 5 -9 8 -22 8 -45 0 -79 -28 -161 16 -161 85 0 66 76 116 157
103 37 -6 40 -1 17 31 -17 25 -61 29 -114 11 -26 -9 -34 -9 -41 2 -28 44 8 66
108 68 45 1 58 -3 85 -28z m278 19 c14 -7 25 -7 38 1 11 7 27 9 36 6 24 -9 24
-293 -1 -344 -32 -69 -148 -92 -235 -47 -31 16 -33 21 -14 47 12 16 17 16 56
2 23 -8 54 -15 67 -15 27 0 83 50 83 74 0 19 -7 20 -49 5 -98 -34 -195 59
-175 167 7 39 46 91 78 104 30 12 94 12 116 0z m337 -10 c41 -24 53 -67 53
-186 0 -98 -9 -116 -51 -94 -13 7 -25 7 -38 0 -28 -15 -87 -12 -121 5 -17 9
-33 28 -40 50 -25 74 28 128 127 129 56 1 66 12 36 41 -17 17 -19 17 -127 3
-11 -2 -22 6 -27 20 -8 20 -4 25 24 37 47 21 126 19 164 -5z m163 -136 l0
-155 -27 3 -28 3 -3 140 c-1 76 0 145 2 152 3 7 17 13 31 13 l25 0 0 -156z
m116 142 c5 -12 10 -12 39 0 67 28 135 12 155 -35 6 -16 10 -74 8 -141 l-3
-115 -25 0 c-25 0 -25 1 -30 110 -5 105 -6 110 -31 124 -23 13 -30 12 -65 -5
l-39 -19 -3 -108 -3 -108 -27 3 -27 3 -3 140 c-1 76 0 145 2 152 7 17 45 17
52 -1z m-468 -84 c15 -11 14 -14 -6 -34 l-22 -22 1 49 c0 28 3 43 6 35 3 -8
12 -21 21 -28z"/>
<path d="M1946 281 c-27 -30 -6 -61 42 -61 49 0 75 19 70 51 -3 21 -9 24 -49
27 -35 2 -49 -2 -63 -17z m82 -19 c4 -13 -42 -27 -57 -17 -16 10 -13 23 7 27
26 6 46 2 50 -10z"/>
<path d="M2255 385 c-54 -53 -21 -135 53 -135 60 0 82 22 82 80 0 45 -3 51
-30 65 -42 22 -77 19 -105 -10z m89 -11 c11 -4 16 -19 16 -45 0 -32 -5 -41
-25 -51 -40 -18 -75 3 -75 45 0 18 5 38 12 45 13 13 47 16 72 6z"/>
<path d="M2578 289 c-21 -12 -23 -40 -6 -57 7 -7 28 -12 48 -12 43 0 60 15 60
52 0 26 -3 28 -42 28 -24 0 -51 -5 -60 -11z m75 -16 c4 -3 2 -12 -4 -20 -13
-15 -55 -18 -64 -4 -11 19 52 41 68 24z"/>
<path d="M3370 161 c0 -5 -9 -7 -20 -4 -11 3 -20 0 -20 -6 0 -15 30 -13 60 4
25 14 25 14 3 15 -13 0 -23 -4 -23 -9z"/>
</g>
</svg>
