<?xml version="1.0" standalone="no"?>
<!DOCTYPE svg PUBLIC "-//W3C//DTD SVG 20010904//EN"
 "http://www.w3.org/TR/2001/REC-SVG-20010904/DTD/svg10.dtd">
<svg version="1.0" xmlns="http://www.w3.org/2000/svg"
 width="1040.000000pt" height="780.000000pt" viewBox="0 0 1040.000000 780.000000"
 preserveAspectRatio="xMidYMid meet">

<g transform="translate(0.000000,780.000000) scale(0.100000,-0.100000)"
fill="#000000" stroke="none">
<path d="M6581 7029 c-253 -24 -506 -173 -651 -383 -47 -70 -107 -202 -132
-291 -17 -65 -21 -107 -21 -230 0 -134 2 -159 26 -238 15 -49 36 -105 47 -125
l19 -37 1 53 c0 29 -9 92 -19 140 -38 176 -35 311 10 459 85 276 283 474 569
569 78 26 97 28 240 28 177 0 232 -11 370 -75 491 -230 640 -855 309 -1293
-130 -171 -361 -300 -578 -322 -58 -7 -61 -8 -61 -34 l0 -26 68 7 c329 35 621
260 742 571 103 265 71 579 -85 819 -117 181 -283 307 -491 372 -72 23 -106
29 -244 41 -19 2 -73 -1 -119 -5z"/>
<path d="M7040 6784 c356 -279 401 -795 98 -1119 -108 -115 -236 -192 -375
-225 -50 -11 -53 -14 -53 -42 l0 -31 63 7 c240 27 476 197 587 423 76 153 97
367 51 527 -56 201 -202 387 -366 468 l-40 19 35 -27z"/>
<path d="M4315 6750 c-168 -26 -322 -103 -370 -183 -41 -71 -42 -134 -4 -236
10 -24 11 -24 21 -8 27 50 106 40 158 -20 l31 -35 24 22 c14 13 34 51 45 85
38 115 62 125 288 125 192 0 263 12 297 50 28 31 22 80 -15 113 -27 24 -38 27
-101 27 -66 0 -69 1 -59 20 8 15 6 21 -10 30 -27 15 -231 21 -305 10z"/>
<path d="M6330 6517 c-33 -55 -36 -64 -19 -50 19 16 63 93 52 93 -4 0 -19 -19
-33 -43z"/>
<path d="M4287 6393 c-14 -13 -6 -24 15 -21 27 4 36 28 11 28 -11 0 -23 -3
-26 -7z"/>
<path d="M4417 6393 c-9 -9 12 -33 29 -33 19 0 18 26 -2 34 -19 7 -19 7 -27
-1z"/>
<path d="M4284 6336 c-11 -28 0 -61 21 -61 16 0 20 7 20 35 0 25 -5 36 -18 38
-9 2 -20 -3 -23 -12z"/>
<path d="M4414 6337 c-10 -27 0 -62 19 -65 16 -3 18 2 15 34 -3 39 -24 57 -34
31z"/>
<path d="M4022 6283 c-5 -10 -7 -24 -5 -30 6 -18 33 -16 33 1 0 8 3 21 6 30 9
22 -23 21 -34 -1z"/>
<path d="M4361 6281 c-19 -12 -4 -31 25 -31 26 0 31 9 12 28 -14 14 -19 15
-37 3z"/>
<path d="M4316 6202 c-7 -13 13 -51 34 -62 28 -15 55 -5 69 26 14 32 9 39 -17
23 -15 -10 -25 -9 -50 4 -18 8 -34 12 -36 9z"/>
<path d="M4084 6124 c3 -9 6 -20 6 -25 0 -5 5 -9 10 -9 6 0 10 11 10 25 0 16
-6 25 -16 25 -11 0 -14 -5 -10 -16z"/>
<path d="M4275 5919 c79 -114 78 -114 70 -45 -10 87 -18 102 -57 109 -18 3
-42 9 -52 13 -14 5 -2 -19 39 -77z"/>
<path d="M7177 5860 c-4 -25 -19 -62 -33 -84 -14 -21 -20 -36 -13 -34 23 8 61
93 57 129 -3 33 -3 33 -11 -11z"/>
<path d="M6101 5740 c-73 -17 -121 -81 -121 -161 0 -120 134 -198 239 -138 55
31 75 65 79 134 3 50 0 66 -20 94 -40 59 -109 87 -177 71z"/>
<path d="M4615 5475 c4 -11 45 -128 90 -260 72 -210 85 -240 106 -246 35 -10
179 -10 179 -1 0 4 -16 24 -36 43 -54 51 -162 198 -249 339 -80 127 -105 162
-90 125z"/>
<path d="M5035 5332 c-2 -2 1 -17 7 -33 14 -39 34 -37 34 4 0 25 -4 33 -18 33
-11 0 -21 -2 -23 -4z"/>
<path d="M5771 5306 c-13 -16 -4 -46 14 -46 7 0 18 7 25 15 10 12 10 18 0 30
-15 19 -24 19 -39 1z"/>
<path d="M4131 5240 c-20 -50 -93 -161 -136 -209 -33 -36 -42 -41 -82 -41 -31
0 -43 -4 -40 -12 2 -8 21 -13 45 -13 477 6 642 9 617 12 -70 8 -184 37 -230
58 -98 43 -143 98 -154 190 l-6 50 -14 -35z"/>
<path d="M5076 4826 c-4 -59 -5 -110 -2 -113 3 -3 13 -3 22 1 15 6 16 17 11
89 -10 138 -23 148 -31 23z"/>
<path d="M5370 4906 c0 -9 5 -16 10 -16 6 0 10 4 10 9 0 6 -4 13 -10 16 -5 3
-10 -1 -10 -9z"/>
<path d="M3370 4791 c0 -63 21 -115 63 -160 50 -53 99 -71 195 -71 81 0 82 0
82 25 0 43 -40 113 -92 160 -51 46 -130 82 -204 92 l-44 6 0 -52z"/>
<path d="M4727 4657 c-8 -21 8 -39 29 -35 27 5 25 42 -2 46 -12 2 -24 -3 -27
-11z"/>
<path d="M4884 4655 c-8 -20 4 -35 27 -35 14 0 19 7 19 25 0 18 -5 25 -20 25
-11 0 -23 -7 -26 -15z"/>
<path d="M3774 4538 c9 -39 66 -357 66 -364 0 -4 -10 1 -21 12 -21 18 -21 17
2 -26 20 -38 24 -60 24 -140 0 -91 -2 -100 -37 -171 -104 -211 -377 -392 -771
-514 -159 -49 -114 -43 121 15 305 76 657 196 824 281 l41 21 -7 66 c-3 37
-15 98 -25 137 -12 44 -16 72 -10 76 10 6 -25 77 -43 90 -4 3 -23 31 -42 62
l-34 56 46 3 c44 3 47 5 71 53 36 72 142 174 231 223 94 53 231 97 358 117 53
9 102 17 107 20 6 2 -196 4 -448 4 l-457 1 4 -22z"/>
<path d="M4651 4504 c-197 -132 -472 -284 -606 -335 -39 -15 -40 -15 -13 -21
49 -9 267 99 539 270 162 101 214 141 184 142 -11 0 -58 -25 -104 -56z"/>
<path d="M4709 4382 c-80 -64 -194 -151 -252 -192 -58 -41 -106 -78 -107 -81
0 -4 10 -9 23 -13 38 -9 102 -61 120 -97 l17 -34 0 45 c1 95 68 185 203 271
68 44 187 102 272 133 16 6 6 14 -53 47 -40 21 -74 39 -75 39 -1 0 -68 -53
-148 -118z"/>
<path d="M5391 4246 c-7 -8 -8 -17 -3 -20 6 -3 15 1 21 8 7 8 8 17 3 20 -6 3
-15 -1 -21 -8z"/>
<path d="M3083 4096 c-14 -24 -98 -112 -119 -124 -13 -8 -16 -14 -8 -21 18
-19 154 115 154 151 0 13 -18 9 -27 -6z"/>
<path d="M4732 4019 c2 -6 235 -98 518 -205 350 -132 525 -202 549 -222 58
-47 92 -111 98 -184 3 -37 -20 -336 -57 -732 -34 -367 -59 -671 -56 -674 3 -3
9 -2 13 2 12 12 133 1367 127 1416 -12 88 -82 188 -157 223 -45 22 -1017 387
-1029 387 -5 0 -8 -5 -6 -11z"/>
<path d="M6096 4014 c-7 -19 10 -44 30 -44 16 0 33 30 27 48 -7 18 -50 15 -57
-4z"/>
<path d="M4141 3991 l-30 -16 28 -50 c16 -28 49 -70 74 -94 l45 -44 45 37 c24
19 52 51 62 70 18 33 18 36 2 54 -19 21 -73 39 -147 51 -36 6 -56 4 -79 -8z"/>
<path d="M4511 3917 c-1 -40 -36 -102 -87 -157 l-45 -48 43 -16 c54 -20 471
-136 475 -133 1 2 -28 21 -64 42 -146 86 -278 217 -311 310 l-10 30 -1 -28z"/>
<path d="M8436 3633 c-84 -429 -471 -751 -1174 -977 -212 -68 -403 -113 -747
-175 -31 -5 326 -9 961 -10 773 -1 1013 2 1022 11 9 9 12 158 12 609 0 530 -2
599 -16 613 -30 31 -40 18 -58 -71z"/>
<path d="M5726 3434 c-10 -14 -38 -39 -63 -54 -44 -28 -44 -52 -1 -29 33 16
98 81 98 96 0 20 -13 15 -34 -13z"/>
<path d="M6531 3360 c-24 -20 -39 -40 -33 -44 11 -6 92 49 92 63 0 22 -18 17
-59 -19z"/>
<path d="M2888 3293 c7 -3 16 -2 19 1 4 3 -2 6 -13 5 -11 0 -14 -3 -6 -6z"/>
<path d="M3105 3205 c-203 -49 -559 -105 -661 -105 -24 0 -44 -4 -44 -10 0
-25 217 -230 244 -230 3 0 6 7 6 15 0 9 7 30 16 48 48 94 158 159 449 263 136
49 134 53 -10 19z"/>
<path d="M3532 2991 c-22 -19 -30 -31 -22 -36 11 -7 70 41 70 57 0 14 -14 8
-48 -21z"/>
<path d="M6992 2274 c-32 -14 -32 -14 -17 -44 9 -17 21 -30 27 -30 13 0 148
78 148 85 0 11 -128 2 -158 -11z"/>
<path d="M7386 2274 c-3 -9 -6 -31 -6 -50 0 -33 -12 -45 -25 -24 -11 17 -56
10 -195 -29 -89 -25 -135 -43 -135 -52 0 -8 33 -74 74 -147 60 -108 80 -137
107 -150 33 -15 37 -14 469 123 420 135 434 140 421 159 -44 67 -104 80 -282
61 -144 -15 -277 -18 -329 -6 -28 6 -25 9 50 38 44 17 97 34 117 38 40 8 43
25 5 25 -12 0 -53 -11 -91 -25 -39 -13 -71 -23 -73 -21 -2 1 4 19 12 39 13 31
13 37 1 37 -8 0 -18 -12 -24 -28 -11 -32 -59 -92 -74 -92 -6 0 -7 22 -3 60 4
38 3 60 -3 60 -5 0 -13 -7 -16 -16z"/>
<path d="M5490 2096 c0 -41 217 -116 518 -182 14 -3 22 0 22 9 0 9 -35 21
-107 36 -130 27 -332 92 -390 127 -34 20 -43 22 -43 10z"/>
<path d="M5620 1749 c0 -16 0 -32 0 -36 -1 -13 112 -32 194 -33 44 0 77 3 74
6 -3 3 -35 11 -70 19 -36 7 -95 27 -131 43 l-67 31 0 -30z"/>
<path d="M5552 1457 c-37 -199 -38 -218 -14 -245 17 -20 696 -442 711 -442 15
0 21 62 10 103 -8 32 -40 71 -148 181 -75 78 -151 162 -169 188 l-32 47 78 30
c43 16 99 35 125 42 26 6 47 15 47 20 0 16 -47 9 -118 -16 -85 -31 -86 -31
-67 -1 25 37 30 117 11 154 -32 62 -95 26 -112 -65 l-6 -32 -21 24 c-20 22
-202 151 -246 174 -16 9 -21 -5 -49 -162z m412 57 c3 -9 6 -36 6 -61 0 -75
-69 -174 -85 -123 -9 27 14 133 36 169 21 34 34 39 43 15z"/>
</g>
</svg>
