<?xml version="1.0" standalone="no"?>
<!DOCTYPE svg PUBLIC "-//W3C//DTD SVG 20010904//EN"
 "http://www.w3.org/TR/2001/REC-SVG-20010904/DTD/svg10.dtd">
<svg version="1.0" xmlns="http://www.w3.org/2000/svg"
 width="249.000000pt" height="297.000000pt" viewBox="0 0 249.000000 297.000000"
 preserveAspectRatio="xMidYMid meet">

<g transform="translate(0.000000,297.000000) scale(0.100000,-0.100000)"
fill="#000000" stroke="none">
<path d="M316 2948 c-9 -12 -16 -33 -16 -45 0 -31 -62 -385 -100 -568 -17 -82
-40 -195 -51 -250 -30 -150 -79 -446 -79 -478 0 -34 13 -40 145 -60 102 -16
239 -67 390 -144 191 -97 375 -263 441 -398 39 -80 65 -188 55 -235 l-6 -33
-59 77 c-128 167 -300 298 -490 371 -201 77 -281 96 -420 101 l-129 4 6 -68
c7 -92 56 -254 111 -367 78 -161 229 -326 351 -385 135 -66 342 -87 485 -50
57 15 76 16 82 7 34 -53 108 -300 108 -360 0 -31 4 -39 27 -48 41 -15 204 -7
213 11 5 8 25 87 46 175 31 132 48 179 96 275 111 222 305 443 453 515 70 35
262 92 272 81 11 -10 -60 -181 -93 -227 -73 -100 -160 -160 -297 -204 -64 -20
-70 -25 -94 -71 -14 -27 -39 -68 -54 -91 -42 -60 -39 -70 24 -78 79 -10 158 9
258 62 111 58 190 124 279 233 122 148 208 353 213 508 l2 77 -110 -1 c-198
-1 -410 -68 -624 -196 -213 -128 -318 -260 -442 -556 -40 -95 -59 -123 -59
-87 0 9 -11 38 -25 65 -14 27 -25 53 -25 58 0 4 13 15 28 24 83 49 115 169 87
321 -37 205 -157 385 -355 532 -136 101 -397 234 -573 293 l-79 26 7 45 c36
257 153 872 168 887 10 10 125 -56 216 -125 240 -181 368 -313 481 -498 26
-42 51 -73 61 -73 16 0 49 30 49 44 0 4 25 47 56 94 71 109 256 294 417 418
113 87 236 164 262 164 8 0 16 -18 20 -42 4 -24 16 -81 27 -128 10 -47 32
-159 48 -250 15 -91 42 -230 59 -310 41 -198 48 -260 29 -260 -53 0 -335 -98
-453 -157 -76 -38 -228 -147 -301 -216 -69 -64 -94 -101 -94 -139 0 -31 62
-158 87 -181 20 -18 22 -17 68 49 89 125 236 250 380 325 114 60 347 129 483
145 34 3 64 10 67 14 2 4 -2 34 -9 66 -8 32 -24 111 -36 174 -12 63 -30 149
-40 190 -10 41 -39 185 -65 320 -25 135 -57 306 -71 380 -14 74 -27 151 -29
170 -6 65 -16 90 -39 96 -34 8 -261 -79 -366 -141 -140 -83 -273 -188 -411
-325 l-126 -125 -44 54 c-111 135 -417 367 -610 463 -156 77 -255 96 -283 56z
m62 -1932 c155 -65 272 -145 400 -275 50 -51 92 -98 92 -103 0 -15 -143 1
-216 23 -118 36 -235 134 -311 261 -39 64 -66 128 -55 128 4 0 45 -15 90 -34z"/>
</g>
</svg>
