<?xml version="1.0" standalone="no"?>
<!DOCTYPE svg PUBLIC "-//W3C//DTD SVG 20010904//EN"
 "http://www.w3.org/TR/2001/REC-SVG-20010904/DTD/svg10.dtd">
<svg version="1.0" xmlns="http://www.w3.org/2000/svg"
 width="372.000000pt" height="227.000000pt" viewBox="0 0 372.000000 227.000000"
 preserveAspectRatio="xMidYMid meet">

<g transform="translate(0.000000,227.000000) scale(0.100000,-0.100000)"
fill="#000000" stroke="none">
<path d="M795 2259 c-124 -27 -122 -26 -138 -88 -8 -31 -20 -87 -27 -126 -17
-102 -14 -99 -57 -71 -78 52 -222 72 -264 37 -24 -19 -24 -19 62 -14 97 6 145
-5 187 -44 26 -24 27 -29 28 -136 1 -62 6 -147 12 -190 10 -84 3 -140 -22
-165 -20 -20 -31 -10 -17 16 16 29 14 93 -5 167 -29 115 -140 208 -221 186
-63 -18 -116 -86 -82 -106 5 -4 19 1 29 10 32 29 62 16 82 -38 l18 -47 -38 6
c-50 8 -88 -23 -131 -107 -87 -170 -94 -379 -15 -484 12 -16 29 -55 38 -85 22
-76 79 -156 120 -170 18 -6 69 -9 113 -8 l81 2 55 -42 c30 -24 58 -50 61 -59
5 -12 9 -14 18 -5 8 8 9 18 1 34 -6 13 -16 48 -22 78 -8 39 -23 68 -52 102
-38 45 -39 48 -19 58 16 9 20 8 20 -6 0 -13 7 -15 35 -10 35 7 35 7 33 -26 -3
-27 1 -33 17 -33 15 0 20 -7 20 -25 0 -18 6 -26 23 -28 16 -3 25 -12 29 -32 3
-16 11 -31 19 -34 10 -4 14 -25 14 -79 0 -70 -1 -74 -32 -103 -47 -42 -73 -54
-127 -61 -85 -10 -150 11 -222 73 -35 30 -88 68 -116 85 -119 69 -225 198
-271 328 l-22 66 3 -538 c2 -295 6 -538 8 -540 2 -1 200 0 439 3 l435 5 -1 50
c0 28 -2 108 -4 180 -3 100 -1 136 11 155 l14 25 3 -28 c3 -22 8 -27 25 -25
14 2 21 -2 19 -10 -2 -10 5 -12 27 -7 26 6 30 3 36 -24 4 -17 4 -45 0 -61 -7
-33 5 -39 26 -14 12 15 14 14 19 -7 4 -15 14 -25 28 -27 21 -3 28 -17 34 -72
2 -17 8 -24 21 -22 10 2 17 -3 17 -13 0 -17 16 -20 25 -5 11 18 25 10 25 -15
0 -13 5 -36 12 -50 l11 -25 171 1 171 0 -43 18 c-24 9 -75 42 -115 73 -67 53
-251 233 -344 338 -47 52 -139 202 -170 275 -45 107 -119 371 -108 384 8 7 26
-12 46 -47 15 -27 18 -30 14 -12 -17 71 -34 161 -40 209 -6 42 -4 52 5 46 10
-6 12 -3 7 11 -10 36 -30 89 -38 106 -12 24 -11 61 1 53 14 -9 23 37 12 65 -5
14 -7 43 -4 64 4 32 2 38 -11 33 -10 -4 -17 2 -21 16 -10 38 -5 131 9 167 13
34 13 33 14 -43 1 -49 5 -76 11 -72 6 3 10 21 11 38 0 39 61 163 77 160 7 -2
12 3 12 11 0 14 49 82 98 134 16 17 46 57 66 87 56 84 61 81 40 -23 -3 -15 -1
-21 6 -17 5 3 10 11 10 17 0 6 16 32 35 57 19 26 39 60 44 74 10 26 9 27 -27
27 -29 0 -43 -6 -65 -32 -26 -30 -28 -26 -11 17 5 12 -2 15 -30 15 -26 0 -38
-6 -47 -22 -17 -31 -62 -88 -71 -88 -4 0 -2 14 4 31 6 16 8 33 4 36 -3 4 1 15
11 25 15 17 13 18 -63 17 -43 -1 -97 -5 -119 -10z m87 -206 c-26 -81 -42 -104
-42 -62 0 19 60 152 66 146 1 -1 -10 -39 -24 -84z m-352 -643 c12 -8 11 -10
-7 -10 -29 0 -40 -20 -18 -32 24 -14 2 -28 -43 -28 -48 0 -40 -31 11 -43 37
-9 51 -27 22 -27 -23 0 -31 -31 -12 -45 9 -7 18 -22 19 -35 2 -19 -4 -26 -30
-33 -39 -12 -37 -31 4 -35 23 -2 34 -12 53 -47 14 -27 20 -51 16 -64 -9 -28
-14 -27 -57 17 -39 40 -85 132 -94 191 -6 38 17 133 39 162 27 34 69 47 97 29z"/>
<path d="M1228 2225 c-18 -53 -2 -63 28 -18 9 15 27 35 38 45 21 17 20 17 -15
18 -35 0 -37 -3 -51 -45z"/>
<path d="M1384 2233 c3 -21 6 -49 7 -63 1 -17 7 -8 19 30 18 55 18 55 29 27 6
-16 11 -33 11 -39 0 -5 14 -23 31 -39 18 -16 30 -31 28 -33 -86 -66 -136 -85
-321 -121 -140 -27 -168 -38 -223 -87 -35 -30 -71 -85 -62 -94 2 -2 30 12 63
31 91 55 122 60 344 55 74 -1 118 3 150 14 25 9 48 16 52 16 7 0 40 -92 34
-97 -2 -2 -14 13 -26 34 -34 56 -36 22 -3 -37 27 -48 45 -61 58 -40 3 5 -5 41
-18 79 -13 39 -20 76 -16 82 11 19 32 5 46 -32 l13 -34 -5 47 c-5 48 8 75 18
37 4 -14 13 -20 29 -19 40 4 48 0 48 -20 0 -16 7 -20 34 -20 40 0 66 8 66 21
0 5 -8 9 -17 9 -16 1 -16 2 1 15 11 8 28 15 37 15 10 0 22 7 27 15 6 13 14 13
40 4 l32 -11 -27 -35 c-24 -31 -28 -46 -31 -129 -4 -82 -2 -94 12 -94 11 0 16
9 16 30 0 17 4 30 9 30 13 0 29 48 36 108 4 28 11 52 16 52 13 0 11 -34 -3
-48 -8 -8 -9 -18 -1 -34 8 -18 5 -34 -14 -77 -14 -29 -27 -69 -30 -87 -5 -29
-2 -35 21 -44 39 -14 39 -14 59 34 22 53 38 65 142 102 68 24 95 28 187 29
120 0 149 10 62 21 -84 10 -189 -1 -273 -30 -75 -26 -131 -33 -131 -17 0 5 7
28 15 51 19 55 19 58 -5 30 -18 -21 -20 -21 -20 -4 0 10 6 30 13 43 11 23 17
24 87 22 41 -1 97 3 123 9 27 6 94 11 150 12 120 1 172 -16 243 -82 26 -24 49
-37 58 -34 11 4 18 -6 26 -37 6 -23 9 -50 7 -60 -7 -27 12 -35 28 -13 7 11 16
16 19 13 4 -3 12 -55 18 -115 10 -97 9 -118 -8 -191 -10 -46 -22 -83 -26 -83
-5 0 -20 7 -34 16 -20 13 -28 14 -37 5 -9 -10 -8 -14 4 -21 9 -5 25 -17 37
-27 20 -17 20 -20 6 -61 -23 -67 -11 -72 30 -14 21 28 40 52 43 52 3 0 3 -38
1 -86 -2 -47 -1 -87 4 -90 15 -10 38 17 39 45 0 14 5 35 10 46 6 13 7 -8 3
-63 -4 -65 -19 -124 -66 -265 -65 -195 -103 -280 -167 -367 -23 -30 -53 -73
-67 -95 -39 -58 -246 -259 -339 -328 -44 -32 -82 -61 -85 -64 -7 -6 1404 6
1538 13 l102 6 0 192 c0 106 -3 274 -7 373 l-6 181 -46 -33 c-25 -18 -68 -45
-96 -61 -76 -42 -116 -69 -160 -108 -47 -43 -122 -68 -177 -60 -36 6 -37 8
-23 24 8 9 15 21 15 27 0 6 7 14 15 17 12 4 14 14 10 40 -4 20 -2 36 4 40 20
13 12 36 -13 36 -12 0 -37 5 -55 11 -42 15 -37 38 16 67 37 20 57 23 180 25
188 4 219 22 293 166 20 41 21 46 6 57 -16 11 -15 18 4 90 37 140 28 326 -26
494 -33 105 -54 135 -106 153 l-43 14 33 9 33 9 -38 55 c-46 65 -79 74 -144
41 -41 -21 -119 -88 -119 -101 0 -4 -12 -29 -27 -56 -38 -67 -73 -170 -73
-213 0 -33 35 -101 53 -101 12 0 57 -47 57 -60 0 -5 -7 -10 -15 -10 -8 0 -15
6 -15 14 0 17 -22 26 -48 19 -11 -2 -23 0 -26 6 -4 6 -20 11 -36 11 -19 0 -34
8 -45 22 -14 21 -14 24 7 40 22 16 22 17 3 24 -98 35 -105 47 -80 145 50 191
177 354 303 390 40 11 42 13 27 28 -12 13 -19 13 -35 3 -31 -19 -38 -15 -51
28 -14 47 -16 49 -96 89 -145 74 -184 81 -425 81 l-219 0 37 -40 c58 -63 68
-81 69 -131 1 -26 -2 -46 -6 -44 -7 5 -73 118 -103 178 -30 59 -38 43 -10 -20
50 -112 85 -205 80 -211 -12 -11 -42 29 -55 75 -8 26 -27 75 -43 107 -15 33
-28 65 -28 73 0 7 -4 13 -10 13 -13 0 -13 -3 1 -37 7 -15 18 -44 26 -63 8 -19
19 -45 25 -57 22 -44 0 -33 -55 28 -31 34 -61 76 -67 94 l-11 32 -144 2 c-80
1 -145 0 -145 -3 0 -2 18 -42 40 -87 l40 -83 2 50 c2 47 4 77 8 99 1 6 8 -7
15 -27 8 -20 32 -64 54 -97 l41 -60 -47 -7 c-91 -13 -285 29 -309 67 -2 4 8
27 22 51 l26 43 -6 -49 -6 -49 33 44 c19 24 42 59 51 77 l17 32 -80 0 c-64 0
-82 -3 -89 -16 -9 -16 -11 -16 -33 0 -31 21 -39 20 -39 -5 0 -11 -5 -40 -11
-64 -16 -64 -33 -46 -25 26 4 36 3 59 -3 59 -5 0 -12 -21 -15 -47 -3 -27 -8
-72 -12 -100 -3 -29 -9 -53 -13 -53 -15 0 -31 68 -23 91 15 39 23 109 13 109
-4 0 -11 -19 -14 -41 -7 -54 -24 -71 -32 -33 -4 16 -11 40 -17 54 -11 24 -11
24 -20 -18 -11 -48 -24 -47 -34 3 l-6 35 -115 0 -116 0 7 -37z m143 -15 c12
-27 33 -91 33 -102 0 -3 -13 3 -30 16 -25 18 -30 29 -30 65 0 47 11 55 27 21z
m840 -155 c17 -14 17 -14 0 -9 -10 3 -27 6 -37 6 -18 0 -34 30 -46 85 -5 27
-3 26 29 -19 20 -26 44 -55 54 -63z m117 -23 c75 -94 92 -128 37 -76 -16 16
-46 39 -67 51 -29 17 -38 30 -41 56 -2 18 -8 38 -13 43 -6 6 -10 17 -10 25 0
19 2 17 94 -99z m-770 -16 c10 -26 7 -54 -7 -54 -20 0 -57 30 -57 46 0 16 16
19 25 4 4 -6 11 -8 16 -4 5 3 7 10 4 15 -4 5 -2 9 3 9 6 0 13 -7 16 -16z m189
-142 c-3 -23 -10 -42 -14 -42 -13 0 -11 64 3 78 16 16 18 12 11 -36z"/>
<path d="M1015 1767 c-29 -22 -7 -26 85 -16 148 15 271 -11 336 -73 39 -37 41
-38 57 -20 10 11 15 26 12 34 -3 7 -54 31 -113 51 -102 35 -113 37 -233 37
-89 0 -130 -4 -144 -13z"/>
<path d="M1610 1656 c0 -26 33 -56 60 -56 10 1 6 8 -12 23 -16 13 -28 28 -28
34 0 7 -4 15 -10 18 -6 3 -10 -5 -10 -19z"/>
<path d="M1821 1645 c-11 -19 -25 -35 -31 -35 -5 0 -10 -4 -10 -10 0 -5 6 -10
14 -10 17 0 66 56 66 76 0 25 -17 15 -39 -21z"/>
<path d="M2116 1664 c-27 -8 -66 -26 -87 -40 -21 -13 -43 -24 -49 -24 -5 0
-10 -5 -10 -11 0 -12 11 -11 130 11 83 15 218 13 280 -5 30 -8 71 -18 90 -21
31 -5 33 -4 18 9 -10 8 -18 19 -18 24 0 18 -152 62 -230 68 -53 3 -89 0 -124
-11z m211 -20 c-3 -3 -12 -4 -19 -1 -8 3 -5 6 6 6 11 1 17 -2 13 -5z"/>
<path d="M1066 1642 c-52 -15 -61 -21 -67 -46 -5 -17 -7 -31 -5 -33 2 -2 20 4
42 14 49 21 265 24 336 4 70 -20 80 -8 18 24 -111 56 -213 68 -324 37z"/>
<path d="M855 1609 c-4 -6 -5 -12 -4 -13 8 -7 69 7 69 15 0 13 -57 11 -65 -2z"/>
<path d="M2530 1592 c0 -32 16 -52 42 -52 24 0 23 17 -2 30 -11 6 -20 15 -20
20 0 6 9 10 20 10 11 0 20 5 20 10 0 6 -13 10 -30 10 -26 0 -30 -4 -30 -28z"/>
<path d="M1606 1573 c-14 -15 -4 -23 30 -23 20 0 46 -8 60 -19 25 -20 54 -18
102 8 11 6 32 11 47 11 15 0 24 4 20 10 -11 18 -77 11 -100 -10 -22 -21 -23
-21 -56 -2 -37 21 -93 35 -103 25z"/>
<path d="M862 1544 c-20 -14 -31 -44 -16 -44 12 0 64 42 64 51 0 14 -23 11
-48 -7z"/>
<path d="M1928 1555 c-14 -15 3 -24 32 -18 22 4 40 -1 68 -20 63 -41 160 -87
184 -87 34 0 68 11 68 21 0 5 -10 10 -22 10 -13 1 4 6 37 11 62 9 161 3 170
-12 3 -4 21 -11 42 -15 26 -5 33 -9 23 -15 -23 -14 -7 -20 71 -29 88 -10 102
-6 93 23 -9 27 -19 33 -69 42 -22 3 -44 10 -50 14 -28 21 -165 27 -338 16
-107 -7 -107 -7 -165 24 -57 31 -130 49 -144 35z"/>
<path d="M1356 1496 c-48 -25 -84 -41 -81 -36 20 33 -151 28 -216 -6 -19 -10
-59 -23 -89 -30 l-55 -12 40 -2 c34 -2 36 -3 15 -9 -14 -4 -20 -10 -15 -13 16
-10 122 16 118 28 -5 16 14 22 98 28 73 5 73 5 34 -8 -22 -8 -55 -15 -72 -15
-30 -1 -43 -13 -25 -24 21 -13 160 26 240 68 48 25 104 48 125 52 51 8 57 23
9 23 -28 0 -67 -14 -126 -44z"/>
<path d="M1540 1511 c0 -5 5 -13 10 -16 6 -4 8 -10 5 -15 -3 -5 6 -17 21 -26
22 -15 27 -15 35 -3 12 20 11 24 -8 41 -23 20 -63 32 -63 19z"/>
<path d="M1826 1481 c-16 -16 -27 -34 -24 -41 2 -6 21 7 43 30 24 25 33 40 24
40 -8 0 -28 -13 -43 -29z"/>
<path d="M1850 1445 c-7 -9 -8 -15 -2 -15 5 0 12 7 16 15 3 8 4 15 2 15 -2 0
-9 -7 -16 -15z"/>
<path d="M1854 1373 c-11 -14 -34 -44 -53 -65 -35 -40 -37 -64 -3 -30 12 12
32 28 47 38 23 15 28 15 41 3 17 -17 97 -13 91 5 -2 6 -12 13 -23 15 -10 2
-23 9 -27 17 -4 8 -17 14 -28 14 -11 0 -18 4 -14 9 14 23 -15 18 -31 -6z"/>
<path d="M1534 1376 c11 -9 25 -16 32 -16 7 0 29 -19 48 -42 39 -45 60 -46 28
-1 -32 44 -56 62 -93 69 -32 5 -33 5 -15 -10z"/>
<path d="M1620 1385 c1 -18 38 -60 46 -52 4 4 -4 20 -19 35 -15 14 -27 22 -27
17z"/>
<path d="M1465 1371 c-7 -12 12 -24 25 -16 11 7 4 25 -10 25 -5 0 -11 -4 -15
-9z"/>
<path d="M940 1285 c-7 -8 -8 -15 -2 -15 5 0 15 7 22 15 7 8 8 15 2 15 -5 0
-15 -7 -22 -15z"/>
<path d="M1485 1260 c-25 -10 -173 -154 -207 -200 -49 -68 -59 -99 -59 -172 0
-39 2 -72 4 -74 2 -3 7 28 11 67 8 87 22 118 85 189 l50 55 31 -37 c52 -62 68
-47 25 22 -28 44 -25 58 17 96 45 41 65 46 103 28 47 -22 57 -11 14 15 -37 23
-44 24 -74 11z"/>
<path d="M1880 1263 c-8 -3 -26 -15 -40 -26 l-25 -20 30 7 c109 24 139 16 170
-44 16 -31 13 -43 -33 -132 -11 -22 26 -3 54 27 17 19 41 35 52 35 34 0 105
-62 131 -113 26 -54 45 -230 39 -375 -2 -45 1 -82 5 -82 5 0 7 93 5 208 -4
238 -7 248 -99 365 -89 112 -216 178 -289 150z"/>
<path d="M1832 1123 c-50 -44 -46 -58 17 -58 56 0 83 -20 39 -29 -92 -18 -217
-28 -281 -21 -128 13 -125 14 -189 -56 -54 -60 -67 -79 -52 -79 3 0 17 9 31
19 13 11 31 17 39 14 9 -3 14 1 14 14 0 11 6 28 14 39 13 17 25 19 133 16 65
-2 171 2 236 9 134 15 189 6 240 -37 41 -34 85 -56 92 -45 3 5 -25 29 -62 54
-89 58 -107 67 -137 67 -34 0 -40 14 -16 35 26 23 25 37 -3 63 -32 30 -76 28
-115 -5z"/>
<path d="M1496 1124 c-19 -18 -21 -45 -4 -62 17 -17 45 -15 52 3 6 17 39 20
67 5 11 -6 24 -8 29 -5 28 17 -47 75 -98 75 -17 0 -38 -7 -46 -16z"/>
<path d="M1015 1035 c4 -16 9 -37 11 -45 3 -8 12 -60 20 -115 25 -169 26 -175
35 -175 13 0 11 35 -6 136 -20 116 -43 206 -56 219 -7 7 -8 1 -4 -20z"/>
<path d="M2512 943 c-21 -42 -59 -214 -68 -308 -8 -86 10 -50 30 60 29 165 37
199 57 237 22 43 23 48 9 48 -5 0 -18 -17 -28 -37z"/>
<path d="M1970 940 c0 -5 5 -10 10 -10 6 0 10 5 10 10 0 6 -4 10 -10 10 -5 0
-10 -4 -10 -10z"/>
<path d="M2040 940 c0 -5 5 -10 11 -10 5 0 7 5 4 10 -3 6 -8 10 -11 10 -2 0
-4 -4 -4 -10z"/>
<path d="M1490 931 c0 -11 26 -22 34 -14 3 3 3 10 0 14 -7 12 -34 11 -34 0z"/>
<path d="M1805 874 c-11 -2 -79 -8 -151 -12 l-131 -8 -60 -41 c-33 -23 -73
-43 -89 -45 -52 -6 -26 -23 48 -33 119 -15 360 -12 518 8 80 10 155 21 168 24
26 6 30 23 5 23 -10 1 -34 9 -53 20 -92 49 -124 61 -177 64 -32 3 -67 2 -78 0z
m193 -66 c6 -6 12 -14 12 -18 0 -13 -115 -33 -212 -36 -54 -1 -102 -6 -108 -9
-15 -10 -233 4 -244 15 -20 20 74 39 103 21 9 -6 25 -2 45 10 35 22 76 25 94
7 10 -10 19 -8 43 6 22 13 40 16 69 11 22 -4 42 -10 45 -15 3 -5 22 0 43 11
38 19 84 17 110 -3z"/>
<path d="M2116 678 c3 -4 11 -5 19 -1 21 7 19 12 -4 10 -11 0 -18 -5 -15 -9z"/>
<path d="M1444 656 c-8 -20 3 -66 16 -66 6 0 10 7 10 15 0 8 5 15 10 15 6 0
10 -6 10 -13 0 -7 9 -13 20 -14 24 -2 27 28 5 47 -8 7 -15 10 -15 6 0 -4 -11
1 -25 10 -23 15 -25 15 -31 0z"/>
<path d="M2040 644 c0 -9 5 -14 12 -12 18 6 21 28 4 28 -9 0 -16 -7 -16 -16z"/>
<path d="M1982 630 c0 -14 2 -19 5 -12 2 6 2 18 0 25 -3 6 -5 1 -5 -13z"/>
<path d="M1390 599 c0 -26 33 -76 64 -97 35 -24 31 -24 161 -1 33 6 155 11
272 11 232 -1 242 2 256 60 10 38 -10 45 -41 15 -35 -33 -79 -49 -113 -42 -41
9 -302 7 -384 -2 -96 -12 -141 -3 -177 36 -31 33 -38 37 -38 20z"/>
<path d="M1230 581 c0 -12 5 -21 10 -21 6 0 10 6 10 14 0 8 -4 18 -10 21 -5 3
-10 -3 -10 -14z"/>
<path d="M1545 425 c-25 -24 -45 -53 -45 -64 0 -10 -7 -35 -15 -54 -18 -42
-18 -47 -6 -47 5 0 12 13 16 28 7 35 69 131 96 150 10 7 19 17 19 23 0 19 -22
7 -65 -36z"/>
<path d="M1940 450 c0 -5 10 -15 22 -21 12 -6 43 -32 70 -57 26 -24 48 -38 48
-31 -1 20 -19 40 -74 82 -50 38 -66 44 -66 27z"/>
<path d="M1636 375 c-10 -10 -13 -26 -9 -48 3 -23 0 -37 -11 -46 -10 -9 -16
-28 -15 -55 l1 -41 12 36 c6 20 18 44 26 54 12 14 23 115 13 115 -1 0 -8 -7
-17 -15z"/>
<path d="M1870 361 c0 -6 6 -8 14 -5 12 5 28 -9 32 -26 6 -30 54 -114 61 -107
3 4 -29 76 -56 127 -9 17 -51 26 -51 11z"/>
<path d="M1736 322 c-3 -6 -2 -13 3 -17 7 -4 7 -15 0 -32 -5 -15 -7 -34 -4
-42 5 -11 11 -2 22 28 13 38 13 45 0 58 -9 10 -17 11 -21 5z"/>
</g>
</svg>
