<?xml version="1.0" standalone="no"?>
<!DOCTYPE svg PUBLIC "-//W3C//DTD SVG 20010904//EN"
 "http://www.w3.org/TR/2001/REC-SVG-20010904/DTD/svg10.dtd">
<svg version="1.0" xmlns="http://www.w3.org/2000/svg"
 width="735.000000pt" height="817.000000pt" viewBox="0 0 735.000000 817.000000"
 preserveAspectRatio="xMidYMid meet">

<g transform="translate(0.000000,817.000000) scale(0.100000,-0.100000)"
fill="#000000" stroke="none">
<path d="M0 8148 l0 -23 165 4 c185 3 235 -2 235 -26 0 -19 -43 -54 -84 -69
-25 -9 -31 -17 -32 -40 0 -16 1 -32 3 -36 4 -7 38 14 103 63 19 15 44 29 55
31 12 2 20 11 20 23 1 35 13 42 77 46 152 8 265 4 281 -10 21 -17 6 -48 -25
-53 -30 -4 -36 -28 -6 -28 23 0 68 32 68 48 0 12 52 32 81 32 30 0 46 -14 29
-25 -16 -10 -12 -45 5 -45 10 0 15 10 15 30 0 38 28 54 80 45 21 -4 47 -2 58
4 26 14 102 0 116 -21 8 -13 6 -22 -9 -38 -29 -32 -7 -46 47 -29 39 13 43 17
43 47 1 36 20 55 47 46 20 -6 30 8 22 30 -6 16 -1 16 -299 4 -16 -1 -71 2
-121 7 -63 5 -98 4 -113 -4 -12 -7 -21 -8 -21 -2 0 6 -161 10 -420 10 l-420 1
0 -22z"/>
<path d="M1424 8161 c16 -6 17 -9 5 -17 -14 -9 18 -18 104 -31 42 -6 74 -41
63 -69 -5 -13 -14 -15 -39 -9 -17 4 -51 6 -73 6 -26 -1 -46 5 -54 14 -15 18
-64 20 -78 2 -9 -10 2 -26 47 -70 32 -31 61 -57 64 -57 3 0 7 10 9 21 2 12 11
27 21 33 18 11 30 2 57 -44 7 -12 12 -13 27 -2 10 7 30 17 45 23 15 6 30 19
33 30 4 10 12 19 18 19 7 0 28 10 47 22 19 12 42 21 51 20 9 -2 19 4 22 12 4
9 24 19 47 22 22 4 43 10 45 14 9 15 -41 37 -80 35 -22 -1 -43 3 -47 9 -4 6
-40 13 -80 17 -96 10 -279 10 -254 0z"/>
<path d="M2127 8159 c-16 -4 -34 -12 -40 -17 -7 -5 -33 -13 -59 -16 -46 -7
-48 -8 -44 -38 2 -20 15 -42 35 -60 31 -28 32 -29 21 -81 -20 -99 -23 -122
-24 -182 l-1 -60 49 -1 c29 0 63 7 84 18 20 10 47 18 59 18 13 0 40 7 59 15
20 8 40 12 45 9 8 -5 89 72 89 85 0 3 -16 17 -35 30 -23 15 -35 31 -35 47 0
13 -6 27 -13 31 -27 17 -67 76 -67 98 0 39 7 40 225 31 39 -1 50 -36 11 -36
-14 0 -26 -4 -26 -10 0 -5 -6 -10 -14 -10 -20 0 -46 -39 -46 -67 0 -28 34 -31
63 -6 11 11 34 17 58 17 35 -1 40 2 45 25 8 35 26 71 36 71 4 0 8 -16 8 -35 0
-28 5 -38 25 -47 20 -9 25 -18 25 -51 0 -28 6 -44 23 -58 29 -24 64 -24 79 1
9 14 24 20 48 20 19 0 48 7 64 15 18 10 41 13 58 10 34 -8 37 9 7 34 -19 15
-20 22 -12 47 8 25 15 29 48 29 34 0 39 -3 46 -28 11 -40 28 -57 55 -57 34 0
30 24 -11 73 -20 23 -34 46 -32 51 4 13 80 20 114 11 27 -6 29 -24 9 -80 -19
-52 -9 -61 51 -48 29 7 54 8 65 2 33 -18 56 -9 87 33 21 28 31 53 31 78 0 19
4 50 9 68 l10 33 -627 -2 c-345 -1 -640 -5 -655 -10z m687 -75 l46 -7 -6 -36
c-7 -36 -65 -101 -89 -101 -17 0 -79 44 -74 51 2 4 -3 15 -12 25 -54 63 -7 87
135 68z m-630 -60 c18 -17 20 -32 8 -52 -10 -15 -51 -3 -71 22 -29 34 31 63
63 30z m70 -127 c6 -9 7 -19 3 -23 -9 -9 -37 15 -37 33 0 18 20 12 34 -10z"/>
<path d="M3836 8128 c4 -24 8 -68 8 -98 1 -49 3 -55 23 -55 11 0 24 -3 28 -7
8 -8 61 10 73 25 5 7 13 49 16 95 l7 82 -81 0 -82 0 8 -42z"/>
<path d="M4328 8063 c5 -131 12 -153 49 -153 42 0 94 17 107 36 11 15 17 15
70 -2 36 -11 67 -29 81 -46 13 -15 36 -33 50 -38 23 -9 26 -8 21 8 -5 16 0 19
36 20 112 4 138 23 138 99 0 29 5 54 10 54 6 1 15 2 22 3 6 0 13 7 16 15 3 10
0 12 -11 8 -14 -5 -15 2 -11 49 l6 54 -294 0 -293 0 3 -107z"/>
<path d="M4930 8108 c0 -19 2 -20 10 -8 13 19 13 30 0 30 -5 0 -10 -10 -10
-22z"/>
<path d="M4970 8106 c0 -8 -6 -16 -12 -19 -8 -2 -9 -8 -4 -13 5 -5 10 -4 13 2
3 8 33 10 93 8 75 -3 90 -2 90 11 0 17 -55 21 -65 5 -8 -14 -53 -8 -59 7 -7
18 -56 17 -56 -1z"/>
<path d="M5190 8095 c-11 -13 -9 -15 15 -15 16 0 25 5 23 12 -7 19 -24 20 -38
3z"/>
<path d="M5287 8103 c-13 -3 -17 -11 -14 -25 8 -28 -9 -67 -38 -90 -14 -11
-25 -24 -25 -29 0 -16 -71 -79 -89 -79 -9 0 -40 23 -68 50 -29 27 -53 46 -53
42 0 -4 6 -14 12 -20 7 -7 11 -27 10 -45 -3 -26 4 -39 37 -72 43 -41 60 -40
64 4 1 16 8 21 28 21 22 0 33 9 54 46 24 41 48 71 99 124 17 18 25 72 11 75
-5 2 -18 0 -28 -2z"/>
<path d="M5535 8090 c-4 -6 -11 -8 -16 -5 -5 4 -9 -1 -9 -9 0 -28 52 -17 58
12 2 14 -24 16 -33 2z"/>
<path d="M5640 8080 c9 -17 9 -29 1 -48 -15 -32 -3 -43 16 -14 9 12 22 22 29
22 8 0 14 7 14 15 0 9 10 20 23 25 18 7 15 9 -20 9 -23 1 -49 4 -58 8 -15 5
-16 3 -5 -17z"/>
<path d="M5857 8094 c-8 -8 1 -24 14 -24 5 0 9 7 9 15 0 15 -12 20 -23 9z"/>
<path d="M6004 8075 c3 -12 -3 -45 -13 -73 -24 -65 -9 -69 39 -12 18 22 38 40
43 40 5 0 15 6 21 14 6 8 33 17 60 20 27 3 53 9 58 14 13 13 -73 23 -88 11 -7
-6 -33 -6 -69 -1 -55 9 -56 9 -51 -13z"/>
<path d="M6582 8092 c-16 -11 -6 -39 19 -53 11 -5 19 -18 19 -27 0 -10 6 -27
14 -37 8 -11 12 -25 9 -32 -3 -9 4 -13 21 -13 14 0 26 5 26 11 0 6 9 24 20 40
20 27 20 30 5 53 -25 38 -63 60 -81 46 -11 -10 -15 -9 -20 4 -7 18 -13 19 -32
8z"/>
<path d="M520 8082 c0 -4 8 -15 18 -23 9 -9 22 -25 28 -35 17 -27 24 -14 17
29 -5 33 -9 37 -34 37 -16 0 -29 -3 -29 -8z"/>
<path d="M6424 8067 c3 -14 -1 -33 -10 -45 -8 -12 -11 -22 -6 -22 15 0 40 33
47 63 6 23 4 27 -15 27 -18 0 -21 -4 -16 -23z"/>
<path d="M110 8060 c0 -20 63 -90 80 -90 6 0 10 -11 10 -25 0 -13 5 -36 12
-50 10 -22 9 -29 -8 -44 -29 -28 -108 -33 -139 -9 -19 15 -29 17 -45 8 -19
-10 -20 -20 -20 -190 0 -153 2 -180 15 -180 8 0 15 -4 15 -10 0 -5 -7 -10 -15
-10 -11 0 -15 -12 -15 -45 0 -45 13 -61 23 -26 3 12 17 21 41 25 39 8 46 22
19 42 -17 12 -16 15 11 37 17 14 26 29 22 35 -4 7 0 15 11 19 25 9 87 63 94
82 3 9 19 18 35 21 23 4 30 11 32 35 3 19 -2 33 -13 41 -28 21 -14 49 22 48
29 -2 31 1 28 26 -2 15 -10 41 -19 58 -9 17 -16 38 -16 46 0 7 -15 23 -34 34
-27 16 -37 31 -50 75 -16 56 -28 67 -72 67 -17 0 -24 -6 -24 -20z"/>
<path d="M5738 8004 c-7 -27 10 -73 21 -56 10 16 31 -28 31 -63 0 -14 5 -25
10 -25 6 0 10 -11 10 -24 0 -29 12 -39 34 -30 25 10 19 37 -13 64 -20 16 -32
37 -36 63 -4 21 -17 50 -29 64 -21 25 -23 25 -28 7z"/>
<path d="M6468 7978 c3 -27 14 -50 38 -75 19 -20 34 -40 34 -44 0 -5 5 -9 10
-9 6 0 10 -5 10 -11 0 -17 50 -60 61 -54 18 12 9 34 -31 76 -22 24 -40 48 -40
55 0 6 -7 17 -15 24 -8 7 -15 23 -15 35 0 16 -8 26 -28 33 -27 9 -27 9 -24
-30z"/>
<path d="M5600 7977 c-27 -14 -38 -37 -17 -37 15 0 53 37 46 45 -3 2 -15 -1
-29 -8z"/>
<path d="M6337 7962 c-10 -10 -17 -24 -17 -31 0 -7 -4 -10 -9 -7 -10 7 -37
-22 -28 -30 7 -7 57 32 81 64 13 17 14 22 3 22 -8 0 -21 -8 -30 -18z"/>
<path d="M7040 7900 c0 -5 5 -10 10 -10 6 0 10 5 10 10 0 6 -4 10 -10 10 -5 0
-10 -4 -10 -10z"/>
<path d="M5430 7866 c0 -24 7 -39 22 -50 19 -14 23 -13 48 7 22 18 24 23 11
28 -9 4 -25 16 -35 28 -29 32 -46 27 -46 -13z"/>
<path d="M7270 7859 c0 -29 18 -59 36 -59 13 0 15 6 9 27 -12 50 -45 73 -45
32z"/>
<path d="M6180 7848 c0 -18 7 -29 21 -33 33 -11 35 3 6 33 l-27 27 0 -27z"/>
<path d="M5268 7730 c-27 -17 -52 -30 -58 -30 -33 0 9 -47 68 -77 18 -9 51
-33 72 -54 22 -22 45 -39 52 -39 8 0 38 -16 68 -35 55 -36 63 -39 92 -36 9 1
19 -3 23 -9 3 -5 14 -10 25 -10 10 0 20 -7 24 -15 3 -10 19 -15 42 -15 21 0
52 -5 70 -12 28 -10 36 -9 51 4 10 9 46 28 81 44 34 15 62 33 62 40 0 15 18
22 96 34 32 5 71 19 85 29 15 11 40 23 55 27 16 4 35 12 43 18 7 5 30 9 50 8
34 -2 35 -2 17 13 -11 8 -25 15 -32 15 -6 0 -14 9 -17 20 -4 17 -14 20 -54 20
-43 0 -52 4 -71 30 -13 17 -31 30 -42 30 -24 0 -70 -21 -70 -32 0 -4 -11 -8
-25 -8 -14 0 -25 -5 -25 -10 0 -6 -16 -18 -37 -28 -27 -13 -37 -14 -40 -4 -3
6 -11 12 -19 12 -8 0 -14 9 -14 21 0 14 -5 19 -17 17 -10 -2 -17 -10 -15 -17
2 -8 -5 -22 -14 -32 -9 -10 -14 -25 -10 -34 4 -12 1 -16 -12 -13 -9 2 -17 10
-17 18 0 23 -43 98 -61 108 -20 11 -60 4 -75 -14 -6 -8 -29 -14 -51 -14 -22 0
-49 -5 -61 -12 -25 -14 -126 -11 -144 4 -6 5 -13 21 -15 36 -4 37 -25 37 -80
2z"/>
<path d="M6574 7709 c-9 -15 12 -33 30 -26 9 4 16 13 16 22 0 17 -35 21 -46 4z"/>
<path d="M6352 7698 c-14 -14 -15 -47 -3 -67 16 -25 81 7 81 40 0 32 -54 51
-78 27z"/>
<path d="M6495 7690 c3 -5 13 -10 21 -10 8 0 14 5 14 10 0 6 -9 10 -21 10 -11
0 -17 -4 -14 -10z"/>
<path d="M7063 7670 c-30 -34 -43 -38 -43 -12 -1 25 -26 -36 -33 -81 -8 -49 6
-87 33 -87 11 0 29 -9 39 -19 12 -12 27 -17 40 -14 17 4 21 1 21 -18 0 -14 9
-30 21 -37 18 -11 20 -11 17 5 -2 11 3 18 12 18 8 0 14 -7 12 -16 -1 -9 9 -21
23 -27 14 -6 25 -16 25 -22 0 -7 15 -10 38 -8 27 2 37 8 37 20 0 9 10 28 23
42 19 23 22 37 22 113 0 47 -3 83 -7 79 -4 -4 -8 -15 -8 -24 0 -14 -10 -17
-50 -16 -67 1 -89 7 -109 27 -10 9 -24 17 -32 17 -17 0 -17 1 -4 36 22 56 -33
73 -77 24z"/>
<path d="M7320 7385 c0 -8 7 -15 15 -15 8 0 15 4 15 9 0 5 -7 11 -15 15 -9 3
-15 0 -15 -9z"/>
<path d="M7312 7227 c-27 -29 -28 -53 -2 -67 23 -13 40 12 40 59 0 37 -9 39
-38 8z"/>
<path d="M0 7209 c0 -11 4 -18 10 -14 5 3 7 12 3 20 -7 21 -13 19 -13 -6z"/>
<path d="M42 7128 c2 -21 8 -33 18 -33 19 0 25 32 10 50 -20 24 -31 17 -28
-17z"/>
<path d="M0 6846 c0 -10 9 -16 25 -16 14 0 25 5 25 10 0 6 -4 10 -9 10 -5 0
-16 3 -25 6 -11 4 -16 1 -16 -10z"/>
<path d="M113 6740 c-13 -5 -23 -14 -23 -19 0 -21 17 -19 46 4 30 25 19 32
-23 15z"/>
<path d="M0 6682 c0 -12 11 -32 25 -46 30 -30 32 -52 5 -59 -23 -6 -27 -37 -5
-37 9 0 18 7 22 16 6 15 8 15 20 -2 16 -22 16 -48 -2 -98 -10 -28 -11 -45 -4
-59 17 -31 3 -65 -31 -72 -34 -8 -39 -25 -11 -42 10 -7 26 -27 35 -45 15 -30
16 -34 1 -44 -13 -10 -15 -22 -10 -58 8 -53 29 -60 72 -26 14 11 35 20 47 20
12 0 28 6 35 13 10 10 14 9 22 -5 6 -10 19 -18 29 -18 10 0 52 -29 93 -65 41
-36 81 -65 88 -65 12 0 12 -2 0 -9 -20 -13 2 -63 40 -96 16 -13 29 -31 29 -39
0 -9 12 -23 26 -33 41 -27 84 -66 84 -78 0 -17 35 -42 50 -37 11 4 10 -1 -3
-16 -21 -23 -6 -42 18 -22 12 10 20 6 43 -20 16 -17 34 -48 41 -69 6 -21 20
-46 30 -55 11 -10 17 -25 14 -33 -5 -12 -1 -14 15 -8 13 4 22 2 22 -4 0 -6 -4
-11 -10 -11 -5 0 -10 -4 -10 -10 0 -5 6 -10 14 -10 22 0 36 -25 38 -65 1 -31
4 -36 22 -31 27 7 46 -11 46 -45 0 -20 9 -35 30 -51 18 -13 30 -31 30 -44 0
-13 11 -40 25 -60 14 -20 25 -44 25 -52 0 -9 7 -23 15 -32 9 -10 16 -34 17
-54 1 -31 8 -43 40 -69 21 -17 37 -36 34 -43 -7 -19 20 -37 44 -29 15 5 26 0
39 -17 22 -26 17 -45 -7 -26 -14 11 -15 10 -9 -5 4 -10 7 -21 7 -23 0 -3 4 -3
9 0 5 3 20 -5 32 -19 13 -13 32 -25 41 -25 20 0 77 -31 123 -66 17 -13 35 -21
38 -18 4 4 14 1 23 -7 9 -7 30 -14 48 -15 84 -6 130 -14 139 -23 6 -6 21 -11
34 -11 13 0 31 -4 41 -9 9 -5 64 -16 122 -25 74 -12 110 -22 126 -36 17 -17
26 -19 46 -11 14 5 29 7 32 4 3 -3 16 -7 28 -10 80 -13 150 -21 196 -22 39 -1
56 -6 69 -21 16 -18 18 -19 36 -2 18 16 19 16 28 -1 6 -9 17 -17 26 -17 13 0
14 3 5 12 -18 18 -15 28 8 28 11 0 23 -6 26 -14 6 -16 5 -16 289 -19 260 -2
395 8 449 34 22 11 49 19 61 19 12 0 30 9 40 20 10 11 30 20 45 20 17 0 53 18
91 45 35 25 74 50 87 55 12 5 22 16 22 23 0 8 11 19 25 25 14 6 25 16 25 21 0
5 9 11 20 14 12 3 20 14 20 25 0 25 35 52 67 52 15 0 23 7 25 23 2 16 11 23
31 25 16 2 30 9 33 16 4 10 25 13 79 10 78 -3 112 -18 135 -59 6 -11 32 -35
58 -52 26 -18 57 -45 70 -60 86 -105 122 -142 168 -175 29 -21 59 -38 68 -38
8 0 17 -4 20 -9 20 -32 198 -89 315 -101 47 -5 118 -14 156 -21 84 -14 548
-13 574 1 10 5 21 7 23 4 3 -3 56 0 118 6 85 9 120 17 140 32 24 18 32 18 68
7 37 -11 43 -10 68 10 19 15 40 22 64 21 58 -3 80 0 80 9 0 4 -13 7 -30 5 -35
-4 -41 13 -7 20 96 19 147 32 177 46 19 10 51 21 70 25 31 7 115 42 191 81 47
24 126 110 153 168 15 32 33 86 40 120 8 35 19 72 25 84 6 11 11 35 11 52 0
17 5 40 11 51 6 11 12 28 14 37 16 67 36 127 48 141 8 9 17 30 21 46 4 17 18
39 32 50 13 11 27 31 29 45 3 14 9 26 15 28 6 2 22 29 36 60 14 32 31 68 38
82 7 14 16 37 20 52 3 15 14 35 24 45 10 10 24 33 30 51 7 17 17 45 23 61 6
18 24 36 44 45 42 20 42 20 48 -4 9 -37 35 -23 42 23 3 23 12 65 20 92 7 28
21 99 30 159 14 90 14 110 3 118 -18 11 -240 2 -286 -13 -20 -6 -52 -18 -70
-25 -18 -8 -41 -14 -51 -14 -26 0 -44 -25 -36 -50 4 -11 2 -20 -4 -20 -6 0
-11 -17 -11 -38 0 -39 -17 -62 -126 -163 -27 -25 -60 -61 -73 -80 -14 -19 -45
-58 -70 -87 -52 -60 -54 -60 -181 -21 -394 120 -1242 143 -1630 44 -71 -18
-179 -54 -195 -65 -10 -8 -66 -24 -195 -59 -100 -26 -193 -30 -215 -8 -21 22
-53 22 -77 0 -22 -20 -72 -19 -173 4 -89 20 -159 47 -315 121 -153 72 -215 94
-350 127 -407 96 -1048 113 -1520 40 -126 -20 -156 -16 -257 32 -106 51 -173
95 -261 170 -20 18 -42 33 -48 33 -5 0 -23 14 -39 30 -16 17 -34 30 -40 30 -7
0 -33 21 -59 46 -29 28 -53 43 -62 40 -9 -4 -32 10 -57 35 -23 22 -52 45 -64
50 -13 5 -23 15 -23 24 0 8 -7 15 -15 15 -9 0 -23 13 -32 28 -9 16 -29 34 -45
40 -18 7 -28 17 -28 31 0 24 -3 25 -28 10 -14 -9 -29 -6 -73 14 -30 15 -63 26
-74 25 -11 0 -29 3 -40 7 -18 7 -17 5 4 -18 32 -35 7 -37 -32 -3 -16 14 -35
22 -42 20 -14 -6 -55 46 -55 70 0 9 -4 16 -10 16 -5 0 -10 -7 -10 -15 0 -8 -8
-15 -18 -15 -23 0 -47 -25 -61 -63 -11 -28 -31 -37 -31 -14 0 7 -25 35 -56 62
-31 28 -58 52 -60 54 -2 2 -4 -5 -4 -17z m7141 -604 c-6 -17 -11 -46 -11 -64
0 -38 -29 -106 -42 -98 -4 3 -6 11 -2 17 3 7 -1 4 -9 -5 -18 -22 -23 -22 -31
-2 -3 8 -2 12 4 9 6 -3 10 1 10 9 0 8 -4 18 -10 21 -15 9 -12 36 5 54 34 36
85 104 86 114 1 7 3 4 6 -6 3 -10 0 -32 -6 -49z m-4361 -268 c0 -13 -50 -13
-70 0 -11 7 -4 10 28 10 23 0 42 -4 42 -10z m-105 -140 c33 -5 77 -10 98 -10
20 0 37 -4 37 -9 0 -6 -50 -9 -117 -9 -79 0 -118 -3 -121 -11 -2 -6 -17 -11
-33 -11 -18 0 -28 -4 -24 -10 3 -5 -3 -10 -13 -10 -11 0 -22 -9 -25 -20 -3
-11 -13 -20 -22 -20 -13 0 -16 7 -13 30 5 30 5 30 -16 11 -12 -11 -33 -23 -49
-26 -15 -4 -34 -16 -41 -27 -8 -12 -15 -15 -18 -8 -2 7 -41 16 -88 21 -83 9
-137 22 -174 41 -13 7 -23 6 -34 -6 -13 -12 -20 -13 -41 -2 -27 13 -79 13
-173 1 -43 -6 -58 -5 -58 4 0 7 26 24 58 39 44 21 85 29 182 39 141 13 589 9
685 -7z m275 -40 c12 -8 9 -10 -13 -10 -16 0 -26 4 -22 10 8 12 16 12 35 0z
m2825 -115 c153 -18 225 -31 239 -45 9 -9 -34 -16 -59 -10 -38 10 -65 11 -65
1 0 -6 -9 -11 -21 -11 -11 0 -18 4 -15 8 3 5 -17 7 -44 4 -32 -3 -50 -1 -50 6
0 7 -10 8 -32 1 -18 -5 -40 -6 -50 -3 -28 8 -181 8 -208 -1 -14 -4 -29 -13
-33 -19 -6 -8 -10 -8 -14 2 -2 6 -14 12 -26 13 -30 0 -167 37 -144 38 10 1 15
6 12 11 -3 6 -30 10 -60 10 -30 0 -57 5 -61 12 -10 16 459 4 631 -17z m-3485
2 c-14 -6 -30 -18 -37 -27 -9 -11 -12 -11 -13 -2 0 22 24 41 50 41 l25 0 -25
-12z m-80 -71 c0 -24 18 -28 44 -11 51 34 146 12 146 -33 0 -10 7 -12 26 -8
34 9 74 -17 74 -48 0 -12 3 -26 7 -30 4 -4 6 -47 4 -96 -2 -77 0 -90 14 -90 8
0 25 -16 36 -35 15 -25 28 -35 46 -35 23 0 24 -3 19 -37 -4 -21 -3 -43 1 -48
10 -13 90 -65 101 -65 4 0 18 -9 30 -21 13 -11 35 -22 50 -23 15 -2 31 -4 37
-5 5 0 4 -6 -2 -12 -11 -11 -213 -14 -298 -5 -199 23 -306 38 -340 47 -22 5
-76 19 -120 29 -122 29 -286 85 -329 113 -14 9 -32 31 -40 49 -16 34 -24 123
-13 135 4 3 7 -1 7 -10 0 -11 8 -17 21 -17 15 0 19 5 15 15 -3 10 1 18 12 22
9 4 47 33 84 65 59 53 72 59 104 56 25 -2 40 2 49 15 8 11 32 20 66 24 61 7
129 38 129 59 0 8 5 14 10 14 6 0 10 -6 10 -14z m3340 -16 c0 -5 -7 -10 -15
-10 -8 0 -15 5 -15 10 0 6 7 10 15 10 8 0 15 -4 15 -10z m-146 -46 c9 -3 13
-10 10 -15 -3 -5 1 -10 8 -10 7 -1 26 -3 42 -5 16 -1 35 3 43 12 22 22 99 18
120 -6 10 -11 25 -20 35 -20 10 0 18 -6 18 -14 0 -9 7 -12 20 -9 14 4 23 -2
32 -22 9 -21 16 -25 36 -20 28 7 62 -18 62 -45 0 -13 7 -16 29 -12 21 3 37 -4
62 -25 19 -16 41 -32 50 -35 9 -4 19 -19 22 -35 3 -18 15 -34 30 -40 34 -16
60 -69 46 -95 -6 -11 -7 -27 -4 -36 6 -15 8 -15 15 3 8 19 9 19 9 -1 1 -21 25
-39 46 -36 28 5 -92 -87 -128 -97 -23 -7 -55 -16 -72 -21 -16 -4 -73 -16 -125
-25 -52 -9 -111 -20 -130 -26 -19 -5 -107 -15 -195 -21 -192 -14 -471 -1 -663
31 -64 10 -142 46 -150 69 -2 6 3 12 12 12 9 0 16 5 16 10 0 6 20 10 45 10 33
0 47 -5 54 -19 14 -25 45 -32 70 -15 12 9 30 12 44 9 17 -5 38 3 71 23 26 17
63 33 82 37 35 6 36 7 32 48 -3 42 -3 42 34 45 44 4 54 26 44 96 -4 27 -3 47
4 51 13 8 13 62 0 70 -5 3 -10 15 -10 26 0 17 8 22 28 17 4 -1 9 11 12 27 5
30 47 60 91 67 13 2 23 9 22 16 -2 6 4 12 12 12 8 0 15 5 15 10 0 11 30 13 54
4z m-4276 -369 c-9 -9 -30 14 -23 25 6 9 10 8 17 -4 6 -10 8 -19 6 -21z m2062
-51 c0 -12 20 -18 58 -17 25 1 11 -17 -33 -43 -46 -27 -68 -27 -46 0 10 11 9
16 -5 24 -12 7 -15 17 -9 41 6 26 9 30 21 20 8 -6 14 -18 14 -25z m-1995 -24
c3 -5 2 -10 -4 -10 -5 0 -13 5 -16 10 -3 6 -2 10 4 10 5 0 13 -4 16 -10z
m1938 -44 c15 -22 14 -24 -11 -36 -15 -7 -58 -15 -97 -18 -66 -5 -69 -4 -52
12 9 10 17 22 17 27 0 13 60 37 96 38 23 1 36 -6 47 -23z m1502 -23 l18 -28
-21 19 c-12 11 -22 23 -22 28 0 14 7 9 25 -19z m-1665 -121 c9 -1 11 -5 4 -12
-5 -5 -57 -10 -114 -10 -58 -1 -133 -5 -167 -11 -65 -10 -93 -5 -93 17 0 10
18 12 78 11 42 -2 88 0 101 3 22 5 156 6 191 2z"/>
<path d="M1710 5135 c0 -8 4 -15 10 -15 5 0 7 7 4 15 -4 8 -8 15 -10 15 -2 0
-4 -7 -4 -15z"/>
<path d="M1 6184 c0 -18 5 -34 12 -37 7 -3 13 3 13 13 0 10 -3 17 -7 14 -4 -2
-10 6 -12 18 -3 17 -5 15 -6 -8z"/>
<path d="M7250 5930 c0 -28 16 -50 37 -50 19 0 16 11 -12 45 l-25 30 0 -25z"/>
<path d="M3833 4169 c-8 -8 -37 -11 -83 -10 -66 2 -70 1 -70 -19 0 -24 -22
-50 -42 -50 -7 0 -25 -11 -40 -25 -15 -14 -33 -24 -40 -23 -7 2 -14 -8 -16
-22 -2 -15 -15 -34 -32 -45 -15 -10 -31 -31 -34 -47 -3 -16 -16 -33 -32 -41
-19 -10 -27 -23 -29 -45 -2 -18 1 -32 6 -32 5 0 9 5 9 10 0 13 57 13 65 0 4
-6 14 -9 23 -8 14 3 16 -4 14 -37 -3 -33 2 -47 25 -72 47 -53 50 -57 51 -98 1
-29 8 -46 26 -60 13 -11 27 -30 31 -43 3 -12 17 -29 29 -38 21 -13 22 -18 12
-47 -20 -54 -34 -73 -68 -90 -20 -10 -26 -17 -15 -17 13 0 17 -8 17 -34 0 -28
-6 -38 -40 -60 -41 -27 -48 -40 -29 -52 6 -3 -7 -14 -30 -25 -23 -10 -44 -26
-48 -36 -9 -24 -34 -42 -56 -43 -11 0 -30 -9 -44 -20 -14 -11 -29 -17 -34 -15
-4 3 -18 -13 -31 -35 -25 -43 -53 -52 -63 -19 -4 12 -12 18 -21 15 -8 -3 -34
1 -57 9 -23 8 -50 15 -59 15 -9 0 -20 9 -23 20 -3 11 -15 20 -26 20 -10 0 -19
5 -19 11 0 7 -7 8 -17 4 -10 -4 -24 -9 -32 -12 -10 -5 -12 1 -6 27 6 28 3 36
-28 65 -38 36 -34 36 -117 9 -26 -9 -52 -72 -39 -95 8 -17 6 -23 -13 -39 -29
-22 -35 -89 -12 -137 12 -27 21 -33 47 -33 28 0 35 -5 50 -40 13 -32 22 -40
42 -40 14 0 28 -7 31 -15 4 -8 15 -15 25 -15 10 0 19 -5 19 -10 0 -6 15 -27
34 -46 29 -29 38 -33 65 -28 27 6 37 2 58 -21 23 -24 30 -26 69 -20 32 4 50 2
66 -9 16 -12 25 -13 35 -4 10 8 20 8 38 -2 20 -11 27 -10 55 10 25 17 34 19
45 10 12 -10 24 -8 60 9 34 16 50 19 70 11 20 -8 27 -7 30 5 3 8 7 22 10 31 3
10 11 14 21 10 22 -8 49 9 73 46 11 18 33 42 50 53 24 16 29 24 24 47 -5 24
-2 28 19 28 13 0 31 9 41 20 25 30 68 25 107 -11 26 -25 38 -30 61 -25 25 5
31 2 39 -19 5 -14 13 -25 17 -26 5 0 18 -2 30 -3 12 -1 41 0 65 4 41 6 45 4
85 -37 43 -45 67 -48 76 -12 7 26 21 24 37 -6 14 -26 43 -41 61 -30 5 4 15 19
20 33 l11 27 27 -32 c32 -39 53 -41 74 -10 l16 22 18 -21 c22 -25 50 -37 58
-23 13 21 74 38 105 29 26 -7 30 -6 30 10 0 28 16 33 49 15 43 -22 60 -19 67
11 4 17 18 31 40 40 26 11 34 20 34 39 0 14 5 25 12 25 6 0 29 8 50 17 36 16
39 20 34 46 -5 23 -2 30 14 34 11 3 23 16 26 28 5 21 21 31 77 49 14 4 16 13
12 43 -6 38 -4 44 47 115 21 28 34 109 23 135 -4 10 -7 36 -6 59 2 27 -3 45
-13 54 -11 9 -13 16 -6 25 15 19 23 97 12 125 -13 34 -81 80 -118 81 -40 1
-133 -27 -155 -47 -9 -8 -20 -27 -24 -42 -3 -14 -14 -32 -23 -39 -16 -12 -16
-14 1 -27 22 -17 22 -36 -2 -36 -23 0 -38 -17 -46 -55 -4 -17 -10 -39 -15 -50
-5 -11 -16 -48 -26 -83 -11 -38 -26 -68 -37 -74 -10 -5 -16 -16 -13 -24 4 -9
-3 -18 -18 -24 -17 -6 -26 -18 -28 -37 -2 -21 -12 -33 -40 -46 -21 -10 -38
-23 -38 -28 0 -5 -9 -9 -20 -9 -13 0 -20 -7 -20 -19 0 -31 -19 -35 -51 -12
-27 20 -31 20 -53 6 -23 -15 -25 -14 -44 12 -19 25 -23 27 -42 15 -18 -11 -25
-10 -47 8 -31 24 -42 25 -57 5 -10 -14 -16 -14 -51 -2 -22 8 -45 12 -51 10
-11 -4 -24 39 -24 79 0 11 -14 40 -31 65 -21 29 -32 59 -34 87 -1 24 -8 52
-14 64 -13 25 -1 36 29 27 14 -4 20 -2 20 9 0 8 9 20 20 26 17 9 20 17 14 46
-5 29 -3 34 13 34 23 0 43 18 43 41 0 9 7 22 15 29 8 7 15 21 15 30 0 10 14
32 30 49 30 29 30 31 13 51 -10 11 -23 20 -30 20 -12 0 -18 37 -15 82 1 10 -7
22 -18 28 -11 6 -20 19 -20 29 0 10 -11 26 -25 35 -17 11 -25 26 -25 45 0 27
-14 39 -62 55 -9 2 -18 17 -20 33 -3 25 -8 29 -53 35 -27 4 -51 12 -53 18 -2
6 -14 23 -26 37 -20 23 -32 27 -102 30 -55 4 -83 1 -91 -8z"/>
<path d="M5183 4105 c-5 -9 -20 -22 -34 -28 -39 -20 -35 -42 11 -61 35 -14 40
-20 40 -48 0 -47 10 -78 25 -78 9 0 11 8 7 22 -4 15 -2 19 7 13 7 -4 10 -17 7
-30 -5 -18 6 -35 48 -79 30 -31 63 -56 74 -56 22 0 47 -25 57 -58 6 -19 11
-22 35 -17 16 3 31 2 35 -4 3 -6 16 -11 29 -11 12 0 31 -7 42 -15 25 -19 46
-19 89 2 34 16 36 16 63 -4 25 -18 29 -19 50 -5 29 19 31 94 3 135 -10 16 -17
36 -15 45 3 10 -9 30 -26 47 -18 17 -46 45 -63 63 -17 17 -39 32 -49 32 -10 0
-18 4 -18 10 0 5 -14 17 -32 26 -17 9 -40 26 -49 38 -17 21 -17 21 -38 2 -17
-15 -24 -17 -33 -8 -7 7 -22 12 -34 12 -13 0 -29 8 -36 18 -16 21 -65 38 -135
47 -42 5 -53 4 -60 -10z"/>
<path d="M1690 2079 c-489 -25 -929 -179 -1219 -428 -127 -110 -218 -249 -257
-392 -21 -77 -23 -213 -4 -289 31 -126 107 -250 225 -366 347 -341 1019 -519
1692 -449 414 44 751 166 1023 371 113 85 172 147 234 248 67 106 97 194 103
301 17 295 -167 556 -534 756 -35 18 -63 37 -63 42 0 29 65 97 119 126 34 18
61 37 61 43 0 6 -35 9 -97 6 -105 -3 -149 -19 -225 -79 l-36 -29 -58 20 c-172
59 -434 108 -629 116 -66 2 -136 6 -155 7 -19 2 -100 -1 -180 -4z m424 -30
c200 -18 371 -55 568 -120 35 -11 39 -11 74 21 56 49 130 80 192 80 28 0 52
-3 52 -8 0 -4 -15 -15 -32 -25 -62 -34 -118 -131 -87 -149 8 -5 51 -30 97 -56
239 -136 399 -307 463 -492 30 -89 37 -232 14 -319 -50 -192 -180 -353 -406
-501 -230 -151 -538 -256 -889 -302 -145 -19 -540 -16 -680 5 -452 68 -779
206 -1026 434 -105 96 -198 252 -223 371 -86 410 276 799 911 981 299 86 625
113 972 80z"/>
<path d="M1662 1253 l3 -28 158 -3 157 -3 0 -53 0 -53 -52 -7 c-29 -3 -104 -6
-166 -6 l-113 0 3 -26 3 -27 110 2 c61 1 132 4 158 8 l49 6 -7 -76 c-7 -72 -6
-75 15 -82 12 -4 26 -3 31 2 14 14 28 147 29 266 l0 107 -191 0 -190 0 3 -27z"/>
</g>
</svg>
