<?xml version="1.0" standalone="no"?>
<!DOCTYPE svg PUBLIC "-//W3C//DTD SVG 20010904//EN"
 "http://www.w3.org/TR/2001/REC-SVG-20010904/DTD/svg10.dtd">
<svg version="1.0" xmlns="http://www.w3.org/2000/svg"
 width="996.000000pt" height="657.000000pt" viewBox="0 0 996.000000 657.000000"
 preserveAspectRatio="xMidYMid meet">

<g transform="translate(0.000000,657.000000) scale(0.100000,-0.100000)"
fill="#000000" stroke="none">
<path d="M2933 6409 c-47 -17 -35 -89 15 -89 46 0 66 27 52 66 -10 25 -37 34
-67 23z"/>
<path d="M5482 5808 c-34 -17 -57 -62 -91 -178 -17 -58 -43 -128 -56 -156 -14
-28 -25 -61 -25 -73 0 -15 -9 -25 -30 -32 -33 -12 -31 -25 5 -39 12 -5 38 -35
56 -67 18 -32 43 -71 55 -88 12 -16 25 -40 28 -51 5 -17 -65 -329 -100 -446
-5 -16 2 -18 50 -18 31 0 56 -4 56 -10 0 -5 -7 -10 -15 -10 -8 0 -15 -2 -15
-5 0 -6 30 -67 36 -73 4 -5 63 61 64 71 0 4 -7 7 -15 7 -8 0 -15 5 -15 10 0 6
25 10 55 10 56 0 74 -13 33 -23 -13 -4 -43 -27 -67 -51 l-45 -46 34 -70 c19
-38 40 -70 47 -70 7 0 13 -4 13 -10 0 -6 -27 -10 -62 -10 l-63 0 -34 78 c-19
42 -47 113 -63 157 -31 83 -51 115 -75 115 -12 0 -12 -2 1 -15 8 -8 28 -50 45
-93 16 -43 89 -226 160 -406 72 -180 131 -332 131 -337 0 -14 -110 -10 -165 6
-32 10 -146 21 -316 30 -146 8 -315 22 -375 31 -183 27 -365 88 -473 159 -29
19 -54 35 -56 35 -1 0 19 -57 46 -127 27 -70 49 -135 49 -145 0 -17 50 -18
1080 -18 1076 0 1081 0 1070 20 -10 19 -23 20 -423 22 l-412 3 -42 105 c-35
87 -39 100 -19 77 l23 -29 344 96 c284 78 364 97 460 106 63 5 139 17 167 25
62 19 115 60 107 84 -3 11 6 28 24 45 33 31 33 28 -22 134 l-28 53 -42 -34
c-106 -85 -201 -119 -335 -119 -51 0 -98 4 -103 9 -5 5 -12 23 -15 41 l-6 32
45 0 c132 0 290 56 360 128 l38 38 -51 67 c-117 155 -198 210 -390 266 -93 28
-106 29 -125 16 -11 -8 -58 -44 -105 -80 -112 -87 -252 -157 -324 -163 -51 -4
-58 -2 -85 25 -17 18 -33 46 -37 69 -7 39 8 159 28 215 10 28 13 29 70 29 l61
0 -7 -40 c-6 -37 -5 -40 11 -31 51 28 163 167 163 203 0 18 -4 17 -35 -11 -80
-70 -170 -91 -213 -51 -46 44 -72 138 -72 267 0 51 4 67 24 90 22 26 30 28
107 30 45 1 87 7 93 13 19 19 45 10 73 -26 80 -104 79 -103 124 -88 70 24 100
0 75 -60 -13 -30 -61 -79 -87 -88 -9 -3 -8 -32 5 -118 9 -63 19 -121 21 -128
5 -15 164 62 213 103 49 41 44 65 -40 167 -47 56 -73 115 -88 196 -6 35 -18
79 -27 97 -19 39 -72 72 -134 81 -24 4 -62 16 -84 27 -103 52 -194 68 -243 45z
m406 -1165 c15 -21 15 -57 0 -157 -9 -62 -9 -81 0 -84 7 -2 12 -8 12 -13 0 -5
-34 -9 -75 -9 -43 0 -75 4 -75 10 0 6 6 10 14 10 8 0 17 8 20 18 10 36 26 137
26 169 0 30 -3 33 -28 33 -44 0 -59 -19 -72 -95 -6 -38 -14 -82 -16 -97 -4
-21 -2 -28 10 -28 9 0 16 -4 16 -10 0 -6 -33 -10 -80 -10 -47 0 -80 4 -80 10
0 6 9 10 19 10 16 0 21 14 35 88 20 109 20 132 1 132 -34 0 -12 17 36 28 70
16 82 15 77 -6 -5 -16 0 -15 41 6 51 26 97 24 119 -5z m-111 -780 c-20 -2 -52
-2 -70 0 -17 2 0 4 38 4 39 0 53 -2 32 -4z m160 0 c-20 -2 -52 -2 -70 0 -17 2
0 4 38 4 39 0 53 -2 32 -4z"/>
<path d="M5642 5504 c9 -9 21 -13 27 -9 16 10 3 25 -22 25 -20 0 -20 -1 -5
-16z"/>
<path d="M5485 5501 c-3 -5 -1 -12 4 -15 12 -8 41 3 41 15 0 12 -37 12 -45 0z"/>
<path d="M5637 5474 c-4 -4 -7 -20 -7 -36 0 -22 5 -28 21 -28 17 0 20 5 17 32
-3 31 -17 45 -31 32z"/>
<path d="M5494 5456 c-9 -24 0 -51 19 -54 14 -3 17 4 17 32 0 26 -4 36 -15 36
-9 0 -18 -6 -21 -14z"/>
<path d="M5880 5430 c0 -11 5 -20 10 -20 6 0 10 9 10 20 0 11 -4 20 -10 20 -5
0 -10 -9 -10 -20z"/>
<path d="M5550 5405 c0 -17 2 -18 24 -9 23 9 20 24 -4 24 -11 0 -20 -7 -20
-15z"/>
<path d="M5610 5340 c0 -8 -14 -11 -40 -8 -45 4 -52 -8 -20 -37 16 -15 25 -16
44 -7 24 11 41 48 25 58 -5 3 -9 0 -9 -6z"/>
<path d="M5090 5200 c0 -41 21 -80 65 -119 28 -25 34 -35 26 -45 -6 -7 -40
-62 -75 -121 -62 -104 -64 -109 -49 -132 9 -13 21 -22 27 -20 15 5 174 297
175 322 1 14 -25 40 -79 83 -44 34 -82 62 -85 62 -3 0 -5 -14 -5 -30z"/>
<path d="M5085 4740 c-4 -6 12 -10 42 -10 35 0 44 3 33 10 -20 13 -67 13 -75
0z"/>
<path d="M3708 4594 c-23 -20 -47 -39 -51 -44 -21 -19 92 -100 161 -115 l32
-7 0 49 c-1 67 -15 134 -31 144 -29 18 -68 9 -111 -27z"/>
<path d="M5046 4313 c-2 -10 -6 -56 -8 -103 l-3 -85 134 0 c91 0 136 4 138 11
5 14 -219 194 -240 194 -9 0 -18 -8 -21 -17z"/>
<path d="M3356 4201 c-14 -23 -656 -1555 -652 -1558 2 -2 29 2 61 9 l58 13
313 745 c173 410 314 750 314 755 0 13 -88 47 -94 36z"/>
<path d="M1823 4144 c-128 -47 -214 -204 -183 -332 9 -39 9 -54 0 -69 -19 -29
12 -83 46 -83 22 0 30 -10 56 -70 l31 -69 60 42 c34 23 66 45 71 49 5 4 -6 24
-27 47 -40 44 -47 83 -23 116 15 20 82 23 116 5 26 -14 30 -13 30 8 0 13 35
34 130 79 72 34 133 69 136 78 10 25 -16 75 -39 75 -11 0 -40 20 -63 44 -65
68 -113 89 -214 93 -59 2 -98 -2 -127 -13z"/>
<path d="M3515 4130 c-3 -5 -142 -333 -309 -730 l-304 -720 37 6 c45 8 60 16
88 46 21 22 569 1302 580 1355 4 18 -2 25 -32 37 -44 19 -52 19 -60 6z"/>
<path d="M4480 4126 c0 -20 91 -69 103 -57 6 6 -8 21 -39 40 -54 35 -64 37
-64 17z"/>
<path d="M3423 3447 c-144 -343 -265 -631 -269 -641 -8 -21 5 -19 83 12 36 14
46 25 64 67 89 207 479 1139 479 1146 0 9 -64 39 -84 39 -6 0 -129 -280 -273
-623z"/>
<path d="M6020 4060 c0 -13 28 -25 38 -16 3 4 0 11 -8 16 -20 13 -30 12 -30 0z"/>
<path d="M2720 3892 c0 -102 15 -139 73 -186 37 -30 44 -31 146 -34 l108 -4
21 52 c12 29 22 56 22 61 0 4 -17 13 -37 20 -72 22 -238 106 -285 142 l-48 37
0 -88z"/>
<path d="M2144 3856 c-10 -8 -16 -18 -12 -22 10 -9 58 12 58 26 0 14 -23 12
-46 -4z"/>
<path d="M2176 3803 c-10 -10 -7 -38 7 -56 18 -24 40 -7 32 26 -7 25 -27 41
-39 30z"/>
<path d="M2043 3730 c-43 -17 -41 -78 3 -99 41 -18 91 20 80 62 -4 18 -46 50
-59 46 -1 0 -12 -4 -24 -9z"/>
<path d="M1900 3706 c0 -17 5 -26 16 -26 10 0 14 6 10 15 -3 8 -1 14 3 12 5
-1 11 3 13 8 1 6 -7 11 -19 13 -19 3 -23 -1 -23 -22z"/>
<path d="M2154 3646 c22 -18 62 -21 71 -6 3 6 -4 10 -17 10 -13 0 -34 3 -48 6
-24 5 -24 5 -6 -10z"/>
<path d="M1966 3471 c15 -46 4 -107 -31 -167 -22 -37 -23 -43 -9 -62 8 -12 19
-22 24 -22 7 0 90 232 90 252 0 3 -20 13 -43 21 l-44 15 13 -37z"/>
<path d="M2776 3125 c-4 -16 -16 -58 -27 -92 -22 -72 -22 -73 -9 -73 21 0 51
92 48 144 -3 47 -4 48 -12 21z"/>
<path d="M3231 2756 c-19 -23 4 -28 24 -6 15 17 16 20 3 20 -9 0 -21 -6 -27
-14z"/>
<path d="M1958 2406 l-136 -142 16 -27 c9 -15 21 -27 27 -27 12 0 85 91 142
175 35 52 98 166 91 164 -2 0 -65 -65 -140 -143z"/>
<path d="M3089 2523 l-66 -25 -146 -348 c-81 -192 -147 -353 -147 -359 0 -9
88 -47 94 -40 2 3 186 440 323 767 7 17 12 32 11 31 -2 0 -33 -12 -69 -26z"/>
<path d="M2122 2505 c-7 -14 -12 -31 -12 -38 1 -17 40 32 40 49 0 23 -16 16
-28 -11z"/>
<path d="M2851 2432 l-64 -27 -113 -270 c-63 -148 -114 -273 -114 -277 0 -9
66 -38 84 -38 12 0 282 627 274 635 -2 2 -32 -9 -67 -23z"/>
<path d="M850 2279 c-11 -103 -11 -122 1 -130 29 -18 237 -9 373 16 l39 8 -19
-33 c-28 -47 -89 -97 -167 -135 -38 -18 -65 -35 -60 -38 17 -10 130 50 179 95
25 23 59 61 74 83 20 29 40 45 67 53 21 7 61 23 88 36 l50 24 -92 1 c-149 1
-318 43 -453 111 -33 17 -61 30 -63 30 -2 0 -10 -54 -17 -121z"/>
<path d="M2623 2343 l-61 -25 -81 -192 c-45 -105 -81 -196 -81 -202 0 -14 82
-46 92 -36 4 4 46 99 93 212 48 113 93 220 100 238 16 38 18 37 -62 5z"/>
<path d="M2332 2214 c-71 -15 -122 -40 -62 -29 19 3 65 11 103 17 37 6 67 15
67 19 0 12 -32 10 -108 -7z"/>
<path d="M1870 2133 c-14 -3 -29 -9 -35 -15 -11 -12 94 -2 129 12 16 7 10 9
-24 8 -25 0 -56 -3 -70 -5z"/>
<path d="M7355 2083 c-223 -69 -872 -273 -1225 -385 l-265 -84 -3 -397 -2
-397 -25 0 -25 0 0 389 0 389 -187 -59 c-104 -32 -197 -59 -209 -59 -11 0
-324 69 -695 153 l-674 152 -350 3 c-225 1 -399 -2 -487 -11 -75 -7 -157 -11
-182 -9 -40 4 -45 7 -48 30 -3 23 -7 17 -27 -33 -50 -130 -60 -150 -73 -148
-7 2 -141 55 -297 118 -156 63 -287 115 -291 115 -8 0 -67 -145 -75 -187 -3
-17 -1 -49 5 -72 19 -72 46 -92 214 -160 l156 -63 0 -128 0 -128 123 -7 c128
-7 903 9 1192 25 265 15 254 16 270 -24 14 -33 18 -35 67 -38 47 -3 55 -7 73
-35 17 -28 26 -32 61 -33 72 0 106 -69 107 -217 l1 -93 623 0 624 0 33 -35
c46 -49 95 -49 140 -1 l32 33 255 4 254 4 3 -163 c2 -149 4 -163 19 -157 63
24 285 30 1093 30 809 0 1041 -7 1104 -31 14 -5 16 32 18 332 l3 338 628 175
c345 96 624 178 620 182 -7 5 -636 205 -1863 589 -358 112 -488 150 -511 149
-13 0 -105 -25 -204 -56z"/>
<path d="M1247 2057 c18 -31 826 -947 835 -947 5 0 3 8 -4 18 -36 51 -821 942
-830 942 -5 0 -5 -6 -1 -13z"/>
<path d="M1794 1994 c33 -38 65 -75 72 -83 10 -11 48 -7 235 24 123 20 228 41
233 46 6 5 -43 9 -120 9 -184 0 -345 23 -459 66 -12 5 3 -19 39 -62z"/>
<path d="M1920 1531 c0 -11 58 -61 71 -61 18 0 9 15 -25 43 -37 29 -46 32 -46
18z"/>
<path d="M242 917 c-127 -127 -232 -235 -232 -239 0 -3 15 -11 34 -18 49 -16
101 0 214 64 116 66 191 93 287 103 l69 8 8 42 c14 85 46 123 103 123 38 0 43
3 58 36 17 35 18 36 72 32 32 -2 55 1 55 7 0 6 -36 8 -97 5 -96 -5 -100 -5
-192 32 -52 21 -106 38 -120 38 -21 0 -75 -49 -259 -233z"/>
<path d="M2477 950 c-54 -14 -87 -33 -131 -76 -57 -56 -81 -114 -80 -199 1
-82 19 -129 71 -186 61 -67 103 -84 213 -84 85 0 100 3 141 27 127 74 177 224
120 355 -26 58 -93 126 -147 149 -45 19 -139 26 -187 14z"/>
</g>
</svg>
