<?xml version="1.0" standalone="no"?>
<!DOCTYPE svg PUBLIC "-//W3C//DTD SVG 20010904//EN"
 "http://www.w3.org/TR/2001/REC-SVG-20010904/DTD/svg10.dtd">
<svg version="1.0" xmlns="http://www.w3.org/2000/svg"
 width="1040.000000pt" height="780.000000pt" viewBox="0 0 1040.000000 780.000000"
 preserveAspectRatio="xMidYMid meet">

<g transform="translate(0.000000,780.000000) scale(0.100000,-0.100000)"
fill="#000000" stroke="none">
<path d="M1270 6720 c-20 -20 -20 -33 -20 -1250 l0 -1230 -40 0 -40 0 0 -100
0 -100 2460 0 2460 0 0 100 0 100 -40 0 -40 0 0 688 -1 687 -47 22 c-63 30
-92 74 -92 140 0 61 25 103 93 153 l47 35 0 372 0 372 -22 15 c-20 14 -261 16
-2360 16 -2325 0 -2338 0 -2358 -20z m4564 -136 c14 -14 16 -135 16 -1180 l0
-1164 -925 0 c-509 0 -925 3 -925 8 0 4 6 29 13 56 12 45 11 52 -5 68 -36 36
-18 105 29 112 17 3 24 18 36 86 l7 35 -22 -37 c-12 -21 -24 -38 -27 -38 -8 0
-89 178 -97 213 -7 32 -7 32 -39 11 -21 -14 -24 -14 -33 1 -8 15 -12 12 -30
-17 -11 -18 -35 -43 -51 -56 -36 -27 -39 -52 -10 -78 30 -27 49 -76 49 -128 0
-37 -5 -48 -31 -70 -39 -33 -85 -34 -131 -2 l-35 23 -55 -22 c-93 -38 -166
-93 -194 -147 l-15 -28 -127 0 c-83 0 -132 4 -140 12 -8 8 -28 8 -81 0 -99
-17 -191 -16 -191 2 0 42 209 919 221 927 8 5 47 9 86 9 l73 0 -21 53 c-52
132 -88 173 -247 280 -78 52 -239 130 -256 124 -7 -3 -23 -43 -35 -89 -12 -46
-29 -105 -38 -131 l-15 -48 -55 71 c-31 38 -59 70 -62 70 -3 0 -32 -36 -64
-80 -31 -44 -61 -80 -66 -80 -14 0 -147 162 -185 225 -19 31 -38 70 -41 86 -8
38 -24 37 -150 -2 -120 -38 -190 -72 -311 -151 -100 -66 -144 -115 -205 -231
l-38 -72 -1 682 c0 606 2 683 16 697 14 14 228 16 2204 16 1976 0 2190 -2
2204 -16z m-3339 -1264 c0 -29 -32 -41 -41 -16 -9 24 4 48 23 44 12 -2 18 -12
18 -28z m415 -195 l0 -25 -135 0 c-75 0 -135 4 -135 9 0 38 10 41 141 41 l129
0 0 -25z m-411 -8 c15 -19 -10 -53 -33 -44 -16 6 -22 38 -9 50 10 11 30 8 42
-6z m1344 -459 c8 -28 4 -32 -29 -24 -25 7 -26 8 -9 26 23 26 31 25 38 -2z
m-988 -107 c-5 -25 -13 -32 -43 -37 l-36 -7 28 -22 c25 -20 28 -27 21 -64 -4
-22 -8 -41 -10 -41 -1 0 -20 6 -42 14 -36 13 -45 12 -109 -9 -38 -13 -84 -25
-103 -27 -34 -3 -34 -3 -58 67 -12 38 -28 74 -34 80 -9 7 -10 5 -5 -10 7 -20
25 -144 26 -177 0 -16 14 -18 150 -18 158 0 157 1 144 -47 -6 -23 -7 -23 -223
-23 l-216 0 3 95 c3 76 0 109 -18 166 -12 39 -20 72 -18 74 2 2 30 -2 63 -7
58 -10 304 2 430 21 28 4 52 6 53 5 2 -1 1 -16 -3 -33z"/>
<path d="M2565 6557 c-61 -20 -93 -45 -111 -87 -16 -35 -18 -37 -44 -27 -22 8
-34 7 -61 -9 -99 -58 -156 -226 -108 -316 11 -20 11 -20 25 1 28 39 90 26 150
-31 l31 -29 26 30 c29 35 51 94 44 120 -4 17 -1 18 49 4 47 -12 61 -12 104 1
28 8 60 22 72 30 14 10 45 16 83 16 171 1 269 157 160 258 -30 28 -42 32 -89
32 -30 0 -66 -4 -80 -10 -18 -7 -35 -5 -61 6 -51 21 -143 26 -190 11z"/>
<path d="M2640 6146 c0 -29 20 -66 35 -66 22 0 30 27 17 56 -12 26 -52 34 -52
10z"/>
<path d="M2342 6051 c-17 -10 -12 -53 7 -59 10 -3 12 1 8 17 -4 17 -2 21 8 17
19 -7 31 14 14 25 -17 11 -21 11 -37 0z"/>
<path d="M2640 5997 c0 -18 21 -27 67 -27 43 0 41 22 -3 25 -16 1 -37 5 -46 9
-13 6 -18 4 -18 -7z"/>
<path d="M2480 5821 c0 -7 6 -14 14 -17 23 -9 27 -33 11 -64 -22 -43 -19 -58
17 -80 41 -25 44 -18 40 79 -3 63 -6 70 -27 75 -13 3 -30 9 -39 12 -9 3 -16 1
-16 -5z"/>
<path d="M3835 5543 c-45 -83 -222 -229 -321 -265 -35 -12 -46 -28 -20 -28 12
0 419 230 434 245 13 13 -12 53 -41 67 l-34 16 -18 -35z"/>
<path d="M3316 5000 c-37 -33 -45 -50 -23 -50 22 1 80 61 69 72 -6 6 -22 -1
-46 -22z"/>
<path d="M3100 4460 c-8 -5 -12 -12 -9 -15 8 -8 39 5 39 16 0 11 -11 11 -30
-1z"/>
<path d="M3040 4426 c0 -8 9 -24 21 -37 18 -21 20 -22 14 -4 -5 16 -4 18 6 8
18 -18 34 -16 19 2 -11 14 -10 14 14 6 36 -14 33 -5 -6 19 -38 23 -68 26 -68
6z"/>
<path d="M8675 6463 c-38 -104 -70 -194 -73 -202 -4 -11 12 -13 92 -9 53 3
100 8 103 12 4 4 1 71 -5 149 -18 207 -23 237 -37 237 -7 0 -42 -82 -80 -187z"/>
<path d="M7164 6583 c-41 -42 -74 -162 -60 -219 4 -15 24 -42 44 -61 36 -33
36 -33 24 -78 -7 -25 -12 -54 -12 -65 0 -17 3 -19 19 -10 30 16 76 12 94 -8
21 -23 21 -26 1 -68 -38 -79 9 -154 94 -154 55 0 66 6 70 40 4 37 28 68 70 89
72 37 101 93 101 201 1 150 -105 259 -269 277 -44 4 -64 11 -70 24 -27 50 -74
64 -106 32z"/>
<path d="M6642 6292 c-9 -6 -4 -16 17 -36 16 -16 35 -41 41 -57 15 -34 30 -37
56 -8 10 11 26 18 36 16 28 -8 13 8 -44 46 -61 40 -88 50 -106 39z"/>
<path d="M7190 6104 c-9 -10 -10 -18 -2 -26 12 -12 32 -2 32 17 0 21 -16 26
-30 9z"/>
<path d="M8507 5960 c-26 -37 -82 -169 -74 -176 7 -7 288 -36 302 -31 8 4 23
24 35 47 26 51 44 43 37 -17 -4 -41 -3 -44 17 -41 19 3 21 9 20 63 0 36 -8 73
-18 94 l-18 33 -48 -47 -48 -48 -7 49 c-16 114 -17 115 -55 31 -33 -72 -49
-93 -51 -64 0 6 -15 42 -32 79 l-32 68 -28 -40z"/>
<path d="M7150 5950 c-13 -8 -12 -10 3 -10 9 0 17 5 17 10 0 12 -1 12 -20 0z"/>
<path d="M6231 5929 c-13 -5 -22 -12 -19 -14 3 -3 68 -14 146 -23 111 -15 143
-16 157 -6 14 11 9 14 -37 23 -154 31 -209 35 -247 20z"/>
<path d="M6510 5623 c0 -41 13 -69 27 -60 14 9 3 97 -13 97 -10 0 -14 -12 -14
-37z"/>
<path d="M8591 5496 c-9 -10 -3 -21 23 -50 19 -20 40 -52 47 -71 13 -35 29
-47 29 -22 0 20 -68 157 -78 157 -5 0 -15 -6 -21 -14z"/>
<path d="M7726 5268 c-17 -142 -20 -130 53 -195 89 -80 94 -82 72 -31 -10 24
-31 84 -46 133 -41 138 -69 171 -79 93z"/>
<path d="M6796 5245 c-3 -30 -8 -81 -11 -112 l-5 -58 15 47 c20 62 54 88 116
88 26 0 60 5 76 11 27 11 23 13 -77 45 -58 19 -106 34 -106 34 -1 0 -4 -25 -8
-55z"/>
<path d="M8625 5116 c-30 -10 -315 -222 -315 -235 0 -6 -75 -593 -85 -666 -11
-79 352 647 410 818 14 43 25 82 23 86 -2 4 -16 2 -33 -3z"/>
<path d="M6771 5044 c0 -11 3 -14 6 -6 3 7 2 16 -1 19 -3 4 -6 -2 -5 -13z"/>
<path d="M6757 4952 c-14 -98 -66 -283 -91 -329 -35 -62 -33 -78 15 -112 93
-68 291 -110 554 -118 193 -6 302 3 368 31 l32 13 -51 26 c-76 38 -152 48
-361 45 -188 -3 -188 -3 -245 25 -64 31 -116 85 -152 154 -33 67 -47 123 -55
228 l-7 90 -7 -53z"/>
<path d="M6270 3205 c-58 -8 -111 -14 -117 -14 -7 -1 -13 -5 -13 -10 0 -8 100
-30 257 -56 116 -19 111 -20 118 23 4 20 9 45 12 55 4 15 -4 17 -74 16 -43 -1
-125 -7 -183 -14z"/>
<path d="M7028 3116 l-27 -54 22 -6 c12 -3 47 -6 78 -6 l56 0 -9 52 c-11 59
-19 68 -63 68 -27 0 -34 -6 -57 -54z"/>
<path d="M7640 3048 l0 -35 152 -6 c83 -4 178 -7 210 -7 l59 0 -20 28 -20 29
-168 6 c-92 4 -178 9 -190 13 -21 6 -23 3 -23 -28z"/>
<path d="M8315 2870 c-20 -45 -70 -93 -121 -118 -19 -8 -34 -19 -34 -23 0 -18
22 -18 57 0 66 34 143 122 143 164 0 31 -27 18 -45 -23z"/>
<path d="M5146 1951 c-71 -24 -156 -80 -196 -131 -36 -46 -80 -137 -80 -167 0
-31 -42 -58 -68 -44 -29 16 -33 35 -16 97 12 46 12 59 2 66 -7 4 -766 8 -1686
8 -1477 0 -1676 -2 -1702 -15 -52 -27 -52 -106 0 -132 20 -10 373 -13 1685
-13 l1660 0 17 -30 c9 -17 29 -35 43 -40 16 -6 209 -10 493 -10 443 0 469 1
499 19 17 11 34 29 38 40 6 20 13 21 216 21 l209 0 0 39 c0 22 4 41 8 43 5 2
12 20 15 41 l6 37 -239 0 c-131 0 -245 -3 -253 -6 -13 -5 -13 -11 -1 -51 26
-87 15 -133 -32 -133 -28 0 -41 16 -49 65 -20 112 -111 221 -232 278 -61 28
-79 32 -173 34 -82 2 -118 -1 -164 -16z"/>
<path d="M6724 1753 c-3 -16 -10 -43 -14 -60 -5 -18 -6 -42 -3 -53 5 -19 13
-20 208 -20 l203 0 6 31 c3 17 6 53 6 80 l0 49 -200 0 -200 0 -6 -27z"/>
<path d="M7576 1748 c-3 -18 -4 -54 -3 -80 l2 -48 157 0 156 0 6 40 c3 22 9
58 12 80 l6 40 -166 0 -165 0 -5 -32z"/>
<path d="M8347 1773 c-3 -5 -8 -41 -12 -80 l-7 -73 422 0 c250 0 429 4 439 10
10 5 24 23 31 40 16 38 0 82 -36 99 -28 13 -830 16 -837 4z"/>
<path d="M6337 1500 c-4 -15 2 -24 22 -34 36 -19 149 -48 160 -41 5 2 11 18
13 35 4 28 2 30 -26 30 -17 0 -58 7 -91 15 -76 18 -72 18 -78 -5z"/>
<path d="M7385 1486 l-70 -12 69 -23 c56 -19 70 -21 77 -10 11 17 12 59 2 58
-5 -1 -39 -7 -78 -13z"/>
<path d="M6174 1325 c4 -12 -6 -15 -64 -15 -78 0 -98 -19 -22 -21 26 -1 61 -4
77 -8 26 -6 27 -8 10 -14 -11 -4 -71 -14 -132 -22 -169 -24 -233 -51 -233
-102 l0 -23 321 0 c202 0 327 4 340 10 16 9 19 22 19 73 l0 62 -48 0 c-29 0
-68 10 -103 27 -51 23 -58 24 -72 10 -14 -14 -19 -13 -51 11 -39 31 -51 34
-42 12z"/>
<path d="M7522 1305 c-13 -29 -27 -32 -40 -8 -9 15 -14 15 -68 -6 -33 -13 -83
-26 -113 -30 l-55 -6 -13 -50 c-24 -94 -51 -86 275 -83 l287 3 3 31 c4 43 -23
62 -114 80 -134 26 -131 24 -113 34 9 5 44 13 79 17 36 5 65 13 68 21 5 16
-25 15 -106 -2 -59 -12 -62 -12 -56 6 9 28 -21 22 -34 -7z"/>
</g>
</svg>
