<svg width="57" height="57" viewBox="0 0 57 57" fill="none" xmlns="http://www.w3.org/2000/svg">
<path d="M9.5 16.625C8.24022 16.625 7.03204 17.1254 6.14124 18.0162C5.25044 18.907 4.75 20.1152 4.75 21.375V26.125C4.75 27.3848 5.25044 28.593 6.14124 29.4838C7.03204 30.3746 8.24022 30.875 9.5 30.875H14.25V35.625H4.75V40.375H14.25C15.5098 40.375 16.718 39.8746 17.6088 38.9838C18.4996 38.093 19 36.8848 19 35.625V30.875C19 29.6152 18.4996 28.407 17.6088 27.5162C16.718 26.6254 15.5098 26.125 14.25 26.125H9.5V21.375H19V16.625H9.5ZM33.25 16.625V21.375H30.875V35.625H33.25V40.375H23.75V35.625H26.125V21.375H23.75V16.625H33.25ZM38 16.625V40.375H42.75V28.5L47.5 40.375H52.25V16.625H47.5V28.5L42.75 16.625H38Z" fill="black"/>
</svg>
