<svg width="61" height="61" viewBox="0 0 61 61" fill="none" xmlns="http://www.w3.org/2000/svg">
<path d="M5.08325 17.7917V22.875H10.1666V43.2083H15.2499V22.875H20.3333V17.7917H5.08325ZM27.9583 17.7917C26.6101 17.7917 25.3171 18.3272 24.3638 19.2805C23.4105 20.2338 22.8749 21.5268 22.8749 22.875V43.2083H27.9583V33.0417H33.0416V43.2083H38.1249V22.875C38.1249 21.5268 37.5894 20.2338 36.636 19.2805C35.6827 18.3272 34.3898 17.7917 33.0416 17.7917H27.9583ZM27.9583 22.875H33.0416V27.9583H27.9583V22.875ZM40.6666 17.7917V43.2083H45.7499V30.5L50.8332 43.2083H55.9166V17.7917H50.8332V30.5L45.7499 17.7917H40.6666Z" fill="black"/>
</svg>
