<svg width="59" height="59" viewBox="0 0 59 59" fill="none" xmlns="http://www.w3.org/2000/svg">
<path d="M9.83342 17.2083C8.52943 17.2083 7.27886 17.7263 6.35681 18.6484C5.43475 19.5705 4.91675 20.821 4.91675 22.125V36.875C4.91675 38.179 5.43475 39.4296 6.35681 40.3516C7.27886 41.2737 8.52943 41.7917 9.83342 41.7917H14.7501C16.0541 41.7917 17.3046 41.2737 18.2267 40.3516C19.1487 39.4296 19.6667 38.179 19.6667 36.875V34.4167H14.7501V36.875H9.83342V22.125H14.7501V24.5833H19.6667V22.125C19.6667 20.821 19.1487 19.5705 18.2267 18.6484C17.3046 17.7263 16.0541 17.2083 14.7501 17.2083H9.83342ZM27.0417 17.2083C25.7378 17.2083 24.4872 17.7263 23.5651 18.6484C22.6431 19.5705 22.1251 20.821 22.1251 22.125V36.875C22.1251 38.179 22.6431 39.4296 23.5651 40.3516C24.4872 41.2737 25.7378 41.7917 27.0417 41.7917H31.9584C33.2624 41.7917 34.513 41.2737 35.435 40.3516C36.3571 39.4296 36.8751 38.179 36.8751 36.875V22.125C36.8751 20.821 36.3571 19.5705 35.435 18.6484C34.513 17.7263 33.2624 17.2083 31.9584 17.2083H27.0417ZM27.0417 22.125H31.9584V36.875H27.0417V22.125ZM44.2501 17.2083C42.9461 17.2083 41.6955 17.7263 40.7735 18.6484C39.8514 19.5705 39.3334 20.821 39.3334 22.125V27.0417C39.3334 28.3457 39.8514 29.5962 40.7735 30.5183C41.6955 31.4403 42.9461 31.9583 44.2501 31.9583H49.1668V36.875H39.3334V41.7917H49.1668C50.4707 41.7917 51.7213 41.2737 52.6434 40.3516C53.5654 39.4296 54.0834 38.179 54.0834 36.875V31.9583C54.0834 30.6544 53.5654 29.4038 52.6434 28.4817C51.7213 27.5597 50.4707 27.0417 49.1668 27.0417H44.2501V22.125H54.0834V17.2083H44.2501Z" fill="black"/>
</svg>
